<svg id="icon-account" xmlns="http://www.w3.org/2000/svg" width="48" height="48" viewBox="0 0 48 48">
  <path id="Trazado_1583" data-name="Trazado 1583" d="M0,0H48V48H0Z" fill="none"/>
  <path id="Trazado_1584" data-name="Trazado 1584" d="M24.007,2A22.007,22.007,0,1,0,46.015,24.007,22.016,22.016,0,0,0,24.007,2ZM13.158,37.828c.946-1.981,6.712-3.917,10.85-3.917s9.925,1.937,10.85,3.917a17.442,17.442,0,0,1-21.7,0ZM38,34.637c-3.147-3.829-10.784-5.128-14-5.128s-10.85,1.3-14,5.128a17.606,17.606,0,1,1,27.994,0Zm-14-23.834a7.7,7.7,0,1,0,7.7,7.7A7.683,7.683,0,0,0,24.007,10.8Zm0,11a3.3,3.3,0,1,1,3.3-3.3A3.3,3.3,0,0,1,24.007,21.807Z" transform="translate(-0.007 -0.008)"/>
</svg>
