<svg id="aa5b0b46-033d-46fe-84eb-cb9cd52726e5" data-name="Capa 1" xmlns="http://www.w3.org/2000/svg" viewBox="0 0 197.03 202.67"><defs><style>.b392dd82-c396-49f7-9952-5dcb52383c9e{fill:#b3b3b3;}</style></defs><title>InactivoMesa de trabajo 7</title><path class="b392dd82-c396-49f7-9952-5dcb52383c9e" d="M173.88,111.21a82.56,82.56,0,0,0,.64-9.88,63.3,63.3,0,0,0-.76-9.88l21.4-16.72a5.23,5.23,0,0,0,1.27-6.46L176.16,33.19a5.14,5.14,0,0,0-6.2-2.28L144.75,41a74.14,74.14,0,0,0-17.1-9.88l-3.8-26.85A5.05,5.05,0,0,0,118.78,0H78.25a4.93,4.93,0,0,0-4.94,4.31l-3.8,26.85A75.8,75.8,0,0,0,52.41,41L27.2,30.91A5,5,0,0,0,21,33.19L.73,68.27A4.9,4.9,0,0,0,2,74.73L23.4,91.45a64.57,64.57,0,0,0-.88,9.88,63.13,63.13,0,0,0,.76,9.88L1.87,127.93A5.24,5.24,0,0,0,.6,134.39l20.27,35.09a5.16,5.16,0,0,0,6.21,2.28l25.2-10.13a74.72,74.72,0,0,0,17.1,9.88l3.8,26.85a5.17,5.17,0,0,0,5.07,4.31h40.53a4.84,4.84,0,0,0,4.94-4.31l3.8-26.85a76.56,76.56,0,0,0,17.1-9.88l25.21,10.13a5,5,0,0,0,6.21-2.28l20.26-35.09a4.91,4.91,0,0,0-1.26-6.46ZM98.52,139.33a38,38,0,1,1,38-38A38.11,38.11,0,0,1,98.52,139.33Z"/></svg>