<svg id="e9317cc9-58ba-4364-ad8c-c82756dc4bec" data-name="Capa 1" xmlns="http://www.w3.org/2000/svg" viewBox="0 0 228 253.33"><defs><style>.be27c4a1-638f-42c5-8c1b-a1c4389da962{fill:#b3b3b3;}</style></defs><title>InactivoMesa de trabajo 6</title><path class="be27c4a1-638f-42c5-8c1b-a1c4389da962" d="M202.67,25.33H149.72a37.85,37.85,0,0,0-71.44,0H25.33A25.41,25.41,0,0,0,0,50.67V228a25.41,25.41,0,0,0,25.33,25.33H202.67A25.41,25.41,0,0,0,228,228V50.67A25.41,25.41,0,0,0,202.67,25.33Zm-88.67,0A12.67,12.67,0,1,1,101.33,38,12.71,12.71,0,0,1,114,25.33Zm25.33,177.34H50.67V177.33h88.66Zm38-50.67H50.67V126.67H177.33Zm0-50.67H50.67V76H177.33Z"/></svg>