<svg xmlns="http://www.w3.org/2000/svg" xmlns:xlink="http://www.w3.org/1999/xlink" width="1080" height="1920" viewBox="0 0 1080 1920">
  <defs>
    <linearGradient id="linear-gradient" x1="0.5" x2="0.5" y2="1" gradientUnits="objectBoundingBox">
      <stop offset="0" stop-color="#00d5f6"/>
      <stop offset="1" stop-color="#0066d3"/>
    </linearGradient>
    <clipPath id="clip-Splash-04">
      <rect width="1080" height="1920"/>
    </clipPath>
  </defs>
  <g id="Splash-04" clip-path="url(#clip-Splash-04)">
    <rect width="1080" height="1920" fill="#fff"/>
    <path id="Gradient" d="M-70,1750.879h0c-.359-54.774-45.218-99.336-100-99.336h-880a100.731,100.731,0,0,1-20.154-2.032,99.483,99.483,0,0,1-18.771-5.827,100,100,0,0,1-16.987-9.22,100.694,100.694,0,0,1-14.8-12.211,100.705,100.705,0,0,1-12.211-14.8,100.04,100.04,0,0,1-9.219-16.987,99.488,99.488,0,0,1-5.827-18.771,100.761,100.761,0,0,1-2.031-20.154V0H-70V1750.879Z" transform="translate(1150 0)" fill="url(#linear-gradient)"/>
    <text id="text-welcome" transform="translate(119 1224)" fill="#fff" font-size="35" font-family="Poppins-Regular, Poppins"><tspan x="52.74" y="32">¿Listo para comenzar tu búsqueda buco?</tspan></text>
    <g id="img-find-splash-04" transform="translate(190.001 455)">
      <rect id="Rectángulo_203" data-name="Rectángulo 203" width="6.362" height="251.281" transform="translate(605.908 240.779)" fill="#3f3d56"/>
      <path id="Trazado_1514" data-name="Trazado 1514" d="M1039.581,402.571c.4,87.867-61.414,159.384-61.414,159.384s-62.476-70.944-62.88-158.81S976.7,243.761,976.7,243.761,1039.174,314.7,1039.581,402.571Z" transform="translate(-368.602 -129.77)" fill="#3f3d56"/>
      <rect id="Rectángulo_204" data-name="Rectángulo 204" width="3.272" height="129.24" transform="translate(486.226 359.01)" fill="#3f3d56"/>
      <path id="Trazado_1515" data-name="Trazado 1515" d="M831.862,603.329c.208,45.192-31.587,81.975-31.587,81.975s-32.133-36.488-32.341-81.68,31.587-81.975,31.587-81.975S831.654,558.137,831.862,603.329Z" transform="translate(-312.436 -227.849)" fill="#3f3d56"/>
      <ellipse id="Elipse_203" data-name="Elipse 203" cx="88.647" cy="13.588" rx="88.647" ry="13.588" transform="translate(460.915 478.282)" fill="#3f3d56"/>
      <path id="Trazado_1516" data-name="Trazado 1516" d="M899.423,331.053c-7.51-12.69-22.369-13.282-22.369-13.282s-14.479-1.852-23.767,17.476c-8.657,18.015-20.605,35.408-1.924,39.625l3.375-10.5,2.09,11.285a73.087,73.087,0,0,0,7.993.137c20.007-.646,39.06.189,38.446-6.99C902.452,359.257,906.649,343.263,899.423,331.053Z" transform="translate(-339.432 -149.279)" fill="#2f2e41"/>
      <path id="Trazado_1517" data-name="Trazado 1517" d="M889.234,372.434s9.706,13.588,3.882,24.588S906.7,419.67,906.7,419.67l14.235-31.059s-16.823-11-12.294-21.353Z" transform="translate(-356.437 -167.444)" fill="#fbbebe"/>
      <circle id="Elipse_204" data-name="Elipse 204" cx="16.823" cy="16.823" r="16.823" transform="translate(522.634 177.845)" fill="#fbbebe"/>
      <path id="Trazado_1518" data-name="Trazado 1518" d="M809.255,368.554l14.059-18.139s4.95-19.014,12.12-18.05-2.832,22.8-2.832,22.8l-13.97,20.079Z" transform="translate(-327.053 -154.517)" fill="#fbbebe"/>
      <path id="Trazado_1519" data-name="Trazado 1519" d="M871.469,708.956,876,732.9l9.706,2.588-2.588-28.47Z" transform="translate(-319.375 -260.116)" fill="#fbbebe"/>
      <path id="Trazado_1520" data-name="Trazado 1520" d="M1022.47,667.191l17.47,23.941,7.118,3.235,5.824-9.706-17.471-22.647Z" transform="translate(-375.525 -244.233)" fill="#fbbebe"/>
      <path id="Trazado_1521" data-name="Trazado 1521" d="M894.7,418.14,883.9,403.931s-20.912,3.856-22.853,5.8,5.177,37.529,5.177,37.529,1.294,9.706,7.118,14.882l5.824,3.882,47.882-9.706,1.8-21.3a55.913,55.913,0,0,0-14.742-42.754h0l-8.331,1.139Z" transform="translate(-346.615 -176.88)" fill="#575a89"/>
      <path id="Trazado_1522" data-name="Trazado 1522" d="M839.467,405.728l-3.235-1.294L821.35,403.14s-5.177-1.294-3.882-3.882,2.588-3.235,0-3.882-3.235-1.294-2.588-3.235,4.529-5.824,4.529-5.824l-11-9.059s-.6.421-1.558,1.2c-5.461,4.422-22.742,20.375-10.089,36.329,14.882,18.765,32.353,29.765,46.588,25.882Z" transform="translate(-321.155 -171.247)" fill="#575a89"/>
      <path id="Trazado_1523" data-name="Trazado 1523" d="M884.9,497.729v9.059s-5.823,11-3.882,21.353,2.588,15.529,2.588,15.529a88.351,88.351,0,0,0,4.529,25.882c4.529,12.941-10.353,97.705,8.412,99s29.118,2.588,34.941-3.882S921.782,546.9,921.782,546.9s53.059,110.647,64.059,106.117,38.823-14.882,35.588-20.706-84.764-135.235-84.764-135.235l-2.588-5.823Z" transform="translate(-356.368 -217.122)" fill="#2f2e41"/>
      <path id="Trazado_1524" data-name="Trazado 1524" d="M926.374,791.229s-10.353-.647-10.353,2.588-5.177,14.235-5.177,14.235-3.882,12.941,6.471,11.647,16.823-12.941,16.823-12.941l-2.588-12.294Z" transform="translate(-363.969 -322.976)" fill="#2f2e41"/>
      <path id="Trazado_1525" data-name="Trazado 1525" d="M1097.624,752.711s-9.059-5.824-8.412-1.941,1.294,14.235,5.824,14.882,18.117,4.529,18.765,5.823,16.176,6.471,16.176-1.941-9.706-14.882-9.706-14.882l-11-8.412s-7.118-.647-8.412,3.882S1097.624,752.711,1097.624,752.711Z" transform="translate(-429.977 -307.105)" fill="#2f2e41"/>
      <circle id="Elipse_205" data-name="Elipse 205" cx="10.744" cy="10.744" r="10.744" transform="translate(528.812 158.336)" fill="#2f2e41"/>
      <path id="Trazado_1526" data-name="Trazado 1526" d="M879.688,307.668a10.744,10.744,0,0,1,9.612-10.683,10.855,10.855,0,0,0-1.13-.061,10.744,10.744,0,1,0,0,21.487,10.852,10.852,0,0,0,1.131-.06A10.744,10.744,0,0,1,879.688,307.668Z" transform="translate(-351.781 -141.355)" fill="#2f2e41"/>
      <path id="Trazado_1527" data-name="Trazado 1527" d="M856.784,281l-14.679-7.69-20.272,3.146-4.194,18.524,10.441-.4L831,287.77v6.693l4.817-.185,2.8-10.835,1.748,11.534,17.126-.349Z" transform="translate(-300.067 -100.246)" fill="#2f2e41"/>
      <path id="Trazado_1528" data-name="Trazado 1528" d="M902.226,497.223l-22.639.612s-19.317,3.759-18.233-4.038,19.929-5.07,19.929-5.07l20.628-3.147Z" transform="translate(-346.348 -210.452)" fill="#fbbebe"/>
      <path id="Trazado_1529" data-name="Trazado 1529" d="M939.118,390.532a4.831,4.831,0,0,1,5.329,3.318c4.432,13.966,18.086,60.7,4.52,67.115-15.978,7.552-27.638,7.22-27.638,7.22l-6.241-15.366,5.682-5.332,6.066-39,2.907-16.533Z" transform="translate(-366.064 -176.271)" fill="#575a89"/>
      <path id="Trazado_1530" data-name="Trazado 1530" d="M884.2,379.515,881.616,405.4,858.969,415.1,884.2,409.28Z" transform="translate(-314.979 -139.355)" opacity="0.4"/>
      <path id="Trazado_1531" data-name="Trazado 1531" d="M751.732,298.7h0a30.308,30.308,0,0,1,17.7,12.857l2.116,3.278.106.136,37.131,10.865a2.707,2.707,0,0,1,1.851,3.31l-2.883,10.57a2.707,2.707,0,0,1-3.34,1.895l-37.141-10.381h0l-3.73,1.41a33.333,33.333,0,0,1-21.432.728h0Z" transform="translate(-303.019 -142.164)" fill="#3f3d56"/>
      <ellipse id="Elipse_206" data-name="Elipse 206" cx="2.267" cy="4.251" rx="2.267" ry="4.251" transform="translate(479.043 186.693) rotate(-73.69)" fill="#575a89"/>
      <circle id="Elipse_207" data-name="Elipse 207" cx="1.559" cy="1.559" r="1.559" transform="translate(484.366 184.873)" fill="#3f3d56"/>
      <ellipse id="Elipse_208" data-name="Elipse 208" cx="18.176" cy="8.219" rx="18.176" ry="8.219" transform="matrix(0.308, -0.951, 0.951, 0.308, 431.374, 188.859)" fill="#fff"/>
      <path id="Trazado_1532" data-name="Trazado 1532" d="M753.051,318.41c2.984-9.2,2.172-17.776-1.754-19.641a3.806,3.806,0,0,1,.7.154c4.318,1.4,5.309,10.276,2.212,19.825S745.1,334.9,740.78,333.5a3.791,3.791,0,0,1-.458-.184C744.569,333.859,750.118,327.456,753.051,318.41Z" transform="translate(-301.592 -142.127)" opacity="0.4"/>
      <path id="Trazado_1533" data-name="Trazado 1533" d="M507.155,211.4l-84.271-65.37A557.707,557.707,0,0,1,380.039,108.9c-24.023-22.9-56.633-41.2-94.6-50.952-92.245-23.681-165.322,18.308-198.56,79.962-50.79,94.214-89.714,247.1,135.49,165.718,49.252-17.8,99.106-19.689,136.908-29.064L496.155,246.34Z" transform="translate(-47.766 -51.242)" fill="#fff"/>
      <circle id="Elipse_209" data-name="Elipse 209" cx="4.529" cy="4.529" r="4.529" transform="translate(197.67 41.098)" fill="#f2f2f2"/>
      <path id="Trazado_1534" data-name="Trazado 1534" d="M453.537,86.052h-1.179V84.873h-.23v1.179h-1.179v.23h1.179v1.179h.23V86.282h1.179Z" transform="translate(-165.163 -29.955)" fill="#f2f2f2"/>
      <path id="Trazado_1535" data-name="Trazado 1535" d="M636.537,238.052h-1.179v-1.179h-.23v1.179h-1.179v.23h1.179v1.179h.23v-1.179h1.179Z" transform="translate(-232.188 -86.761)" fill="#f2f2f2"/>
      <path id="Trazado_1536" data-name="Trazado 1536" d="M623.537,285.052h-1.179v-1.179h-.23v1.179h-1.179v.23h1.179v1.179h.23v-1.179h1.179Z" transform="translate(-227.427 -103.976)" fill="#f2f2f2"/>
      <path id="Trazado_1537" data-name="Trazado 1537" d="M64.537,325.052H63.358v-1.179h-.23v1.179H61.949v.23h1.179v1.179h.23v-1.179h1.179Z" transform="translate(-21.865 -118.627)" fill="#f2f2f2"/>
      <path id="Trazado_1538" data-name="Trazado 1538" d="M144.537,107.052h-1.179v-1.179h-.23v1.179h-1.179v.23h1.179v1.179h.23v-1.179h1.179Z" transform="translate(-50.1 -37.367)" fill="#f2f2f2"/>
      <path id="Trazado_1539" data-name="Trazado 1539" d="M455.537,293.052h-1.179v-1.179h-.23v1.179h-1.179v.23h1.179v1.179h.23v-1.179h1.179Z" transform="translate(-165.896 -106.906)" fill="#f2f2f2"/>
      <path id="Trazado_1540" data-name="Trazado 1540" d="M264.537,43.052h-1.179V41.873h-.23v1.179h-1.179v.23h1.179v1.179h.23V43.282h1.179Z" transform="translate(-95.941 -14.779)" fill="#f2f2f2"/>
      <path id="Trazado_1541" data-name="Trazado 1541" d="M313.614,238.915l-1.469.226c.459,2.938.822,5.94,1.087,8.91l1.482-.129C314.448,244.913,314.08,241.885,313.614,238.915Z" transform="translate(-144.596 -120.015)" fill="#e6e6e6"/>
      <path id="Trazado_1542" data-name="Trazado 1542" d="M307.428,211.575l-1.424.434c.861,2.847,1.631,5.765,2.284,8.671l1.456-.33C309.078,217.411,308.3,214.461,307.428,211.575Z" transform="translate(-142.353 -109.996)" fill="#e6e6e6"/>
      <path id="Trazado_1543" data-name="Trazado 1543" d="M297.557,185.355l-1.352.621c1.242,2.711,2.407,5.494,3.462,8.276l1.391-.524C299.99,190.913,298.819,188.092,297.557,185.355Z" transform="translate(-138.769 -98.577)" fill="#e6e6e6"/>
      <path id="Trazado_1544" data-name="Trazado 1544" d="M284.21,160.775l-1.255.8c1.6,2.511,3.132,5.112,4.555,7.719l1.307-.712C287.381,165.939,285.828,163.311,284.21,160.775Z" transform="translate(-133.92 -89.901)" fill="#e6e6e6"/>
      <path id="Trazado_1545" data-name="Trazado 1545" d="M267.617,138.245l-1.132.964c1.928,2.265,3.8,4.633,5.578,7.027l1.191-.886C271.467,142.93,269.571,140.536,267.617,138.245Z" transform="translate(-127.89 -81.949)" fill="#e6e6e6"/>
      <path id="Trazado_1546" data-name="Trazado 1546" d="M248.115,118.185l-.99,1.106c2.226,1.986,4.406,4.076,6.484,6.205l1.068-1.042C252.573,122.3,250.367,120.191,248.115,118.185Z" transform="translate(-118.128 -74.869)" fill="#e6e6e6"/>
      <path id="Trazado_1547" data-name="Trazado 1547" d="M226.08,100.965l-.835,1.229c2.472,1.663,4.918,3.436,7.266,5.267l.919-1.171C231.049,104.44,228.577,102.647,226.08,100.965Z" transform="translate(-110.406 -68.792)" fill="#e6e6e6"/>
      <path id="Trazado_1548" data-name="Trazado 1548" d="M206.4,89.005v1.682c1.546.809,3.08,1.656,4.581,2.524l.744-1.288Q209.11,90.41,206.4,89.005Z" transform="translate(-103.757 -64.571)" fill="#e6e6e6"/>
      <path id="Trazado_1549" data-name="Trazado 1549" d="M314.57,267.206l1.487-.027c.027,1.5.029,3.012.006,4.488l-1.487-.023C314.6,270.185,314.6,268.691,314.57,267.206Z" transform="translate(-145.479 -130.346)" fill="#e6e6e6"/>
      <path id="Trazado_1550" data-name="Trazado 1550" d="M178.614,435.915l-1.469.227c.459,2.938.822,5.94,1.087,8.91l1.482-.129C179.449,441.913,179.08,438.885,178.614,435.915Z" transform="translate(-93.429 -192.205)" fill="#e6e6e6"/>
      <path id="Trazado_1551" data-name="Trazado 1551" d="M172.429,408.575l-1.424.434c.861,2.847,1.631,5.765,2.284,8.671l1.456-.33C174.079,414.411,173.3,411.461,172.429,408.575Z" transform="translate(-91.262 -182.186)" fill="#e6e6e6"/>
      <path id="Trazado_1552" data-name="Trazado 1552" d="M162.557,382.355l-1.352.621c1.242,2.711,2.407,5.493,3.462,8.276l1.391-.524C164.99,387.913,163.819,385.092,162.557,382.355Z" transform="translate(-87.803 -172.576)" fill="#e6e6e6"/>
      <path id="Trazado_1553" data-name="Trazado 1553" d="M149.21,357.775l-1.255.8c1.6,2.511,3.132,5.112,4.555,7.719l1.307-.712C152.381,362.939,150.828,360.311,149.21,357.775Z" transform="translate(-83.127 -163.566)" fill="#e6e6e6"/>
      <path id="Trazado_1554" data-name="Trazado 1554" d="M132.617,335.245l-1.132.964c1.928,2.265,3.8,4.633,5.578,7.027l1.191-.886C136.467,339.93,134.571,337.536,132.617,335.245Z" transform="translate(-77.314 -155.306)" fill="#e6e6e6"/>
      <path id="Trazado_1555" data-name="Trazado 1555" d="M113.115,315.185l-.99,1.106c2.226,1.986,4.406,4.076,6.484,6.205l1.068-1.042C117.573,319.3,115.367,317.191,113.115,315.185Z" transform="translate(-70.481 -147.951)" fill="#e6e6e6"/>
      <path id="Trazado_1556" data-name="Trazado 1556" d="M91.08,297.965l-.835,1.229c2.472,1.663,4.918,3.436,7.266,5.267l.919-1.171C96.049,301.44,93.577,299.647,91.08,297.965Z" transform="translate(-62.759 -141.636)" fill="#e6e6e6"/>
      <path id="Trazado_1557" data-name="Trazado 1557" d="M71.4,286.005v1.682c1.546.809,3.08,1.656,4.581,2.524l.744-1.288Q74.11,287.409,71.4,286.005Z" transform="translate(-56.109 -137.24)" fill="#e6e6e6"/>
      <path id="Trazado_1558" data-name="Trazado 1558" d="M179.57,464.206l1.487-.027c.027,1.5.029,3.012.006,4.488l-1.487-.023C179.6,467.185,179.6,465.691,179.57,464.206Z" transform="translate(-94.285 -202.512)" fill="#e6e6e6"/>
      <path id="Trazado_1559" data-name="Trazado 1559" d="M640.614,336.915l-1.469.227c.459,2.938.822,5.94,1.087,8.91l1.482-.129C641.449,342.913,641.08,339.885,640.614,336.915Z" transform="translate(-264.362 -155.926)" fill="#e6e6e6"/>
      <path id="Trazado_1560" data-name="Trazado 1560" d="M634.428,309.575l-1.423.434c.861,2.847,1.631,5.765,2.284,8.671l1.456-.33C636.079,315.411,635.3,312.461,634.428,309.575Z" transform="translate(-262.126 -145.908)" fill="#e6e6e6"/>
      <path id="Trazado_1561" data-name="Trazado 1561" d="M624.557,283.355l-1.352.621c1.242,2.711,2.407,5.493,3.462,8.276l1.391-.524C626.99,288.913,625.819,286.092,624.557,283.355Z" transform="translate(-258.549 -136.298)" fill="#e6e6e6"/>
      <path id="Trazado_1562" data-name="Trazado 1562" d="M611.21,258.775l-1.255.8c1.6,2.511,3.132,5.112,4.555,7.719l1.307-.712C614.381,263.939,612.828,261.311,611.21,258.775Z" transform="translate(-253.706 -127.289)" fill="#e6e6e6"/>
      <path id="Trazado_1563" data-name="Trazado 1563" d="M594.617,236.245l-1.132.964c1.928,2.265,3.8,4.633,5.578,7.027l1.191-.886C598.467,240.93,596.571,238.536,594.617,236.245Z" transform="translate(-247.682 -119.031)" fill="#e6e6e6"/>
      <path id="Trazado_1564" data-name="Trazado 1564" d="M575.115,216.185l-.99,1.106c2.226,1.986,4.406,4.076,6.484,6.205l1.068-1.042C579.573,220.3,577.367,218.191,575.115,216.185Z" transform="translate(-240.598 -111.677)" fill="#e6e6e6"/>
      <path id="Trazado_1565" data-name="Trazado 1565" d="M553.08,198.965l-.835,1.229c2.472,1.663,4.918,3.436,7.266,5.267l.919-1.171C558.049,202.44,555.577,200.647,553.08,198.965Z" transform="translate(-232.588 -103.38)" fill="#e6e6e6"/>
      <path id="Trazado_1566" data-name="Trazado 1566" d="M533.405,187.005v1.682c1.546.809,3.08,1.656,4.581,2.524l.744-1.288Q536.11,188.409,533.405,187.005Z" transform="translate(-225.66 -99.159)" fill="#e6e6e6"/>
      <path id="Trazado_1567" data-name="Trazado 1567" d="M641.57,365.206l1.487-.027c.027,1.5.029,3.012.006,4.488l-1.487-.023C641.6,368.185,641.6,366.691,641.57,365.206Z" transform="translate(-265.239 -166.245)" fill="#e6e6e6"/>
      <path id="Trazado_1568" data-name="Trazado 1568" d="M147.981,199.3h-1.1v-1.1h-.214v1.1h-1.1v.214h1.1v1.1h.214v-1.1h1.1Z" transform="translate(-51.379 -72.595)" fill="#f2f2f2"/>
      <path id="Trazado_1569" data-name="Trazado 1569" d="M128.44,301.653h-1.1v-1.1h-.214v1.1h-1.1v.214h1.1v1.1h.214v-1.1h1.1Z" transform="translate(-44.482 -110.085)" fill="#f2f2f2"/>
      <path id="Trazado_1570" data-name="Trazado 1570" d="M71.1,391.361h-1.1v-1.1h-.214v1.1h-1.1v.214h1.1v1.1h.214v-1.1h1.1Z" transform="translate(-24.246 -142.942)" fill="#f2f2f2"/>
      <path id="Trazado_1571" data-name="Trazado 1571" d="M272.272,261.885a79.466,79.466,0,1,1,36.87,29.6,25.7,25.7,0,1,1-36.87-29.6Z" transform="translate(-125.806 -81.885)" fill="#3f3d56"/>
      <path id="Trazado_1572" data-name="Trazado 1572" d="M364.884,190.679c18.217,0,30.751,10.1,30.751,24.63,0,9.619-4.664,16.274-13.651,21.569-8.453,4.907-11.319,8.5-11.319,14.719h0a3.838,3.838,0,0,1-3.838,3.838h-9.313a3.838,3.838,0,0,1-3.835-3.7l-.017-.474c-.826-10.007,2.672-16.225,11.465-21.375,8.21-4.907,11.659-8.016,11.659-14.039S370.957,205.4,363.718,205.4c-5.5,0-9.855,2.678-11.853,7.05a8.575,8.575,0,0,1-7.837,4.9h0a8.43,8.43,0,0,1-7.528-12.288C341.169,196.238,351.019,190.679,364.884,190.679Zm-12.777,83.265a10.429,10.429,0,1,1,10.4,10.007A10.175,10.175,0,0,1,352.108,273.944Z" transform="translate(-153.499 -102.713)" fill="#fff"/>
    </g>
    <rect id="Rectángulo_210" data-name="Rectángulo 210" width="56" height="1482" fill="none"/>
  </g>
</svg>
