<svg xmlns="http://www.w3.org/2000/svg" xmlns:xlink="http://www.w3.org/1999/xlink" width="1080" height="1920" viewBox="0 0 1080 1920">
  <defs>
    <linearGradient id="linear-gradient" x1="0.5" x2="0.5" y2="1" gradientUnits="objectBoundingBox">
      <stop offset="0" stop-color="#00d5f6"/>
      <stop offset="1" stop-color="#0066d3"/>
    </linearGradient>
    <clipPath id="clip-Splash-01">
      <rect width="1080" height="1920"/>
    </clipPath>
  </defs>
  <g id="Splash-01" clip-path="url(#clip-Splash-01)">
    <rect width="1080" height="1920" fill="#fff"/>
    <path id="gradient" d="M-3138,1750.88h0c-.359-54.775-45.218-99.337-100-99.337h-880a100.748,100.748,0,0,1-20.153-2.032,99.515,99.515,0,0,1-18.771-5.827,100,100,0,0,1-16.986-9.22,100.721,100.721,0,0,1-14.8-12.211,100.7,100.7,0,0,1-12.211-14.8,100.059,100.059,0,0,1-9.22-16.986,99.516,99.516,0,0,1-5.827-18.771,100.747,100.747,0,0,1-2.032-20.154V0h1080V1750.88Z" transform="translate(4218 0)" fill="url(#linear-gradient)"/>
    <text id="text-welcome" transform="translate(119 1224)" fill="#fff" font-size="35" font-family="Poppins-Regular, Poppins"><tspan x="-50" y="32">Profesionales altamente capacitados 24/7, los 365 días </tspan><tspan x="2.33" y="78" xml:space="preserve">del año.  Desde un plomero hasta un astronauta :) </tspan><tspan x="76.985" y="124">Buscamos los mejores talentos por ti.</tspan></text>
    <g id="img-ingineer-splash-01" transform="translate(190 445)">
      <path id="Trazado_1235" data-name="Trazado 1235" d="M751.993,495.619c-17.338,36.15-52.562,60.323-89.053,76.264a325.906,325.906,0,0,1-91.684,24.72q-9.074,1.088-18.206,1.689a349.5,349.5,0,0,1-46.72-.053q-14.035-.943-27.972-3.014a350.059,350.059,0,0,1-93.525-27.517q-12.886-5.863-25.25-12.8a322.722,322.722,0,0,1-39.467-26.079q-4.152-3.206-8.2-6.549l-1.11-.917c-2.122-1.768-4.224-3.575-6.358-5.329a92.456,92.456,0,0,0-11.267-8.165c-.268-.158-.535-.317-.809-.468-.731-.429-1.475-.831-2.233-1.214a50.861,50.861,0,0,0-4.791-2.137,62.174,62.174,0,0,0-23.8-3.779c-1.358,0-2.716.092-4.08.185h0c-1.906.132-3.819.33-5.725.58l-.705.1a128.609,128.609,0,0,0-17.971,3.9c-9.1,2.638-18.037,5.936-27.032,8.911h0c-3.819,1.273-7.644,2.487-11.5,3.575l-.849.237a124.766,124.766,0,0,1-16.718,3.535,92.236,92.236,0,0,1-38.26-3.113l-.431-.125-.8-.237-1.09-.343q-2.742-.871-5.438-1.906l-1.09-.422q-2.611-1.016-5.111-2.183l-1.09-.5q-2.611-1.227-5.111-2.592c-.6-.317-1.195-.66-1.782-.983q-2.663-1.5-5.222-3.153-2.716-1.748-5.314-3.647-1.2-.871-2.376-1.787a105.72,105.72,0,0,1-12.645-11.522c-.215-.218-.418-.442-.62-.66-1.038-1.134-2.056-2.289-3.042-3.469-.366-.435-.731-.871-1.09-1.319q-1.756-2.163-3.388-4.426c-.163-.218-.32-.442-.477-.66a95.66,95.66,0,0,1-11.013-20.116c-.091-.218-.176-.442-.255-.66q-1.306-3.4-2.383-6.905c-.294-.976-.574-1.979-.823-2.955-.085-.29-.163-.587-.235-.877-3.6-14.332-4.015-29.232-4.015-44.045V397.5c.1-23.962.47-48.332,3.969-71.964a3.032,3.032,0,0,1,.072-.488,226.8,226.8,0,0,1,4.772-23.625,175.533,175.533,0,0,1,8.036-23.942c8.049-19.127,19.753-36.533,32.75-52.665,15.667-19.411,33.619-37.324,53.613-52.1q4.308-3.186,8.734-6.187l1.364-.9c.477-.323.953-.66,1.43-.943h0c.979-.66,1.958-1.28,2.951-1.906l1.11-.7,2.115-1.319.653-.376,1.129-.66,1.116-.66q1.958-1.167,3.962-2.282,8.558-4.821,17.521-8.812,2.644-1.181,5.32-2.275a186.28,186.28,0,0,1,24.9-8.251q4.7-1.2,9.459-2.111,5.614-1.095,11.287-1.814a177.307,177.307,0,0,1,18.134-1.365C320.912,131.1,363.983,145.125,397.4,172c13.317,10.711,25.282,23.394,40.238,31.606,13.056,7.15,28.337,10.111,42.32,4.485,11.554-4.65,19.074-6.958,32.052-6.253a266.282,266.282,0,0,1,78.537,16.594c1.018.376,2.037.765,3.048,1.154,65.742,25.426,122.267,75.915,151.63,140.8q1.162,2.572,2.265,5.184C765,406.889,771.322,455.334,751.993,495.619Z" transform="translate(-63.85 -84.499)" fill="#fffbfb" opacity="0.1"/>
      <path id="Trazado_1236" data-name="Trazado 1236" d="M195.857,323.229V573.306l-.857.237a127.217,127.217,0,0,1-16.891,3.535,94.119,94.119,0,0,1-38.657-3.113l-.435-.125-.8-.237-1.1-.343q-2.77-.87-5.494-1.906l-1.1-.422q-2.638-1.016-5.164-2.183l-1.1-.5q-2.638-1.227-5.164-2.592c-.607-.317-1.207-.66-1.8-.983q-2.691-1.5-5.276-3.153-2.744-1.748-5.369-3.647-1.214-.871-2.4-1.787a106.422,106.422,0,0,1-12.776-11.522c-.218-.218-.422-.442-.627-.66-1.049-1.134-2.078-2.289-3.074-3.469-.369-.435-.739-.871-1.1-1.319q-1.774-2.163-3.423-4.426c-.165-.218-.323-.442-.481-.66a95.364,95.364,0,0,1-11.127-20.116c-.092-.218-.178-.442-.257-.66q-1.319-3.4-2.407-6.906c-.3-.976-.58-1.979-.831-2.955-.086-.29-.165-.587-.237-.877-3.641-14.332-4.056-29.232-4.056-44.045v-5.177c.106-23.962.475-48.332,4.01-71.964a3,3,0,0,1,.073-.488,224.754,224.754,0,0,1,4.821-23.625H140.1V323.229h13.429v-27.3h28.9v27.3Z" transform="translate(-63.84 -140.275)" fill="#fffbfb" opacity="0.1"/>
      <path id="Trazado_1237" data-name="Trazado 1237" d="M874.633,540.185c-17.518,36.15-53.107,60.323-89.977,76.264a331.977,331.977,0,0,1-92.635,24.72q-9.168,1.088-18.4,1.689a356.77,356.77,0,0,1-47.2-.053q-14.18-.943-28.262-3.014a356.453,356.453,0,0,1-94.494-27.517q-13.02-5.863-25.512-12.8a326.381,326.381,0,0,1-39.877-26.079q-4.195-3.206-8.284-6.549l-1.121-.917c-2.144-1.768-4.267-3.575-6.424-5.329a93.39,93.39,0,0,0-11.384-8.165c-.27-.158-.541-.317-.818-.468-.739-.429-1.491-.831-2.256-1.214a51.66,51.66,0,0,0-4.841-2.137V446.31H525.557v22.774h53.721V302.494h63.232v66.615h31.276V329.668h25.841V287.535H711.5V263c1.029.376,2.058.765,3.08,1.154v23.381h11.555v42.159h25.822v39.441h38.076V519.4h60.521V410.12h19.5C887.778,451.455,894.163,499.9,874.633,540.185Z" transform="translate(-186.613 -129.064)" fill="#fffbfb" opacity="0.1"/>
      <rect id="Rectángulo_103" data-name="Rectángulo 103" width="28.262" height="28.262" transform="translate(414.342 198.5)" fill="#fffbfb" opacity="0.1"/>
      <rect id="Rectángulo_104" data-name="Rectángulo 104" width="28.262" height="28.262" transform="translate(414.342 257.082)" fill="#fffbfb" opacity="0.1"/>
      <rect id="Rectángulo_105" data-name="Rectángulo 105" width="28.262" height="28.262" transform="translate(414.342 315.67)" fill="#fffbfb" opacity="0.1"/>
      <rect id="Rectángulo_106" data-name="Rectángulo 106" width="28.262" height="28.262" transform="translate(414.342 374.258)" fill="#fffbfb" opacity="0.1"/>
      <rect id="Rectángulo_107" data-name="Rectángulo 107" width="28.262" height="28.262" transform="translate(414.342 432.84)" fill="#fffbfb" opacity="0.1"/>
      <path id="Trazado_1238" data-name="Trazado 1238" d="M727.1,805v22.319q-14.18-.943-28.262-3.014V805Z" transform="translate(-284.499 -313.585)" fill="#fffbfb" opacity="0.1"/>
      <rect id="Rectángulo_108" data-name="Rectángulo 108" width="98.927" height="12.802" transform="translate(230.332 353.772)" fill="#fffbfb" opacity="0.1"/>
      <rect id="Rectángulo_109" data-name="Rectángulo 109" width="98.927" height="12.802" transform="translate(230.332 392.653)" fill="#fffbfb" opacity="0.1"/>
      <path id="Trazado_1239" data-name="Trazado 1239" d="M521.365,714.21v12.8H448.259q-4.195-3.205-8.284-6.549l-1.121-.917c-2.144-1.768-4.267-3.575-6.424-5.329Z" transform="translate(-192.178 -282.676)" fill="#fffbfb" opacity="0.1"/>
      <path id="Trazado_1240" data-name="Trazado 1240" d="M550.118,773.15v12.8H542.4q-13.02-5.863-25.512-12.8Z" transform="translate(-221.295 -302.742)" fill="#fffbfb" opacity="0.1"/>
      <rect id="Rectángulo_110" data-name="Rectángulo 110" width="18.395" height="18.395" transform="translate(489.077 275.028)" fill="#fffbfb" opacity="0.1"/>
      <rect id="Rectángulo_111" data-name="Rectángulo 111" width="18.395" height="18.395" transform="translate(95.913 189.299)" fill="#fffbfb" opacity="0.1"/>
      <rect id="Rectángulo_112" data-name="Rectángulo 112" width="18.395" height="18.395" transform="translate(95.913 232.038)" fill="#fffbfb" opacity="0.1"/>
      <rect id="Rectángulo_113" data-name="Rectángulo 113" width="18.395" height="18.395" transform="translate(95.913 274.771)" fill="#fffbfb" opacity="0.1"/>
      <rect id="Rectángulo_114" data-name="Rectángulo 114" width="18.395" height="18.395" transform="translate(95.913 317.51)" fill="#fffbfb" opacity="0.1"/>
      <rect id="Rectángulo_115" data-name="Rectángulo 115" width="18.395" height="18.395" transform="translate(95.913 360.249)" fill="#fffbfb" opacity="0.1"/>
      <rect id="Rectángulo_116" data-name="Rectángulo 116" width="18.395" height="18.395" transform="translate(95.913 402.982)" fill="#fffbfb" opacity="0.1"/>
      <rect id="Rectángulo_117" data-name="Rectángulo 117" width="18.395" height="18.395" transform="translate(558.573 275.028)" fill="#fffbfb" opacity="0.1"/>
      <rect id="Rectángulo_118" data-name="Rectángulo 118" width="18.395" height="18.395" transform="translate(489.077 320.406)" fill="#fffbfb" opacity="0.1"/>
      <rect id="Rectángulo_119" data-name="Rectángulo 119" width="18.395" height="18.395" transform="translate(558.573 320.406)" fill="#fffbfb" opacity="0.1"/>
      <rect id="Rectángulo_120" data-name="Rectángulo 120" width="18.395" height="18.395" transform="translate(489.077 365.79)" fill="#fffbfb" opacity="0.1"/>
      <rect id="Rectángulo_121" data-name="Rectángulo 121" width="18.395" height="18.395" transform="translate(558.573 365.79)" fill="#fffbfb" opacity="0.1"/>
      <rect id="Rectángulo_122" data-name="Rectángulo 122" width="18.395" height="18.395" transform="translate(489.077 411.174)" fill="#fffbfb" opacity="0.1"/>
      <rect id="Rectángulo_123" data-name="Rectángulo 123" width="18.395" height="18.395" transform="translate(558.573 411.174)" fill="#fffbfb" opacity="0.1"/>
      <rect id="Rectángulo_124" data-name="Rectángulo 124" width="18.395" height="18.395" transform="translate(489.077 456.551)" fill="#fffbfb" opacity="0.1"/>
      <rect id="Rectángulo_125" data-name="Rectángulo 125" width="18.395" height="18.395" transform="translate(558.573 456.551)" fill="#fffbfb" opacity="0.1"/>
      <path id="Trazado_1241" data-name="Trazado 1241" d="M749.43,772.875V761.01h18.395v10.177Z" transform="translate(-260.353 -259.082)" fill="#fffbfb" opacity="0.1"/>
      <path id="Trazado_1242" data-name="Trazado 1242" d="M69.93,424.68v10.553h70.355V424.68Zm6.266,9.893H71.031V425.34H76.2Zm6.266,0H77.3V425.34h5.164Zm6.266,0H83.563V425.34h5.164Zm6.266,0H89.829V425.34h5.164Zm6.266,0H96.095V425.34h5.164Zm6.266,0H102.36V425.34h5.164Zm6.266,0h-5.164V425.34h5.164Zm6.266,0h-5.164V425.34h5.164Zm6.266,0h-5.164V425.34h5.164Zm6.266,0h-5.164V425.34h5.164Zm6.6,0h-5.494V425.34h5.494Z" transform="translate(-65.913 -184.107)" fill="#fffbfb" opacity="0.1"/>
      <path id="Trazado_1243" data-name="Trazado 1243" d="M69.93,471.14v10.52h70.355V471.14ZM76.2,481H71.031v-9.2H76.2Zm6.266,0H77.3v-9.2h5.164Zm6.266,0H83.563v-9.2h5.164Zm6.266,0H89.829v-9.2h5.164Zm6.266,0H96.095v-9.2h5.164Zm6.266,0H102.36v-9.2h5.164Zm6.266,0h-5.164v-9.2h5.164Zm6.266,0h-5.164v-9.2h5.164Zm6.266,0h-5.164v-9.2h5.164Zm6.266,0h-5.164v-9.2h5.164Zm6.6,0h-5.494v-9.2h5.494Z" transform="translate(-65.913 -199.924)" fill="#fffbfb" opacity="0.1"/>
      <path id="Trazado_1244" data-name="Trazado 1244" d="M69.93,517.59v10.52h70.355V517.59Zm6.266,9.86H71.031v-9.2H76.2Zm6.266,0H77.3v-9.2h5.164Zm6.266,0H83.563v-9.2h5.164Zm6.266,0H89.829v-9.2h5.164Zm6.266,0H96.095v-9.2h5.164Zm6.266,0H102.36v-9.2h5.164Zm6.266,0h-5.164v-9.2h5.164Zm6.266,0h-5.164v-9.2h5.164Zm6.266,0h-5.164v-9.2h5.164Zm6.266,0h-5.164v-9.2h5.164Zm6.6,0h-5.494v-9.2h5.494Z" transform="translate(-65.913 -215.738)" fill="#fffbfb" opacity="0.1"/>
      <path id="Trazado_1245" data-name="Trazado 1245" d="M69.93,564v10.553h70.355V564Zm6.266,9.893H71.031V564.66H76.2Zm6.266,0H77.3V564.66h5.164Zm6.266,0H83.563V564.66h5.164Zm6.266,0H89.829V564.66h5.164Zm6.266,0H96.095V564.66h5.164Zm6.266,0H102.36V564.66h5.164Zm6.266,0h-5.164V564.66h5.164Zm6.266,0h-5.164V564.66h5.164Zm6.266,0h-5.164V564.66h5.164Zm6.266,0h-5.164V564.66h5.164Zm6.6,0h-5.494V564.66h5.494Z" transform="translate(-65.913 -231.538)" fill="#fffbfb" opacity="0.1"/>
      <path id="Trazado_1246" data-name="Trazado 1246" d="M70.34,610.49c.251.989.534,1.979.831,2.955v-2.3h5.164v9.234H73.578c.079.218.165.442.257.659h66.615V610.49ZM82.6,620.383H77.437V611.15H82.6Zm6.266,0H83.7V611.15h5.164Zm6.266,0H89.968V611.15h5.164Zm6.266,0H96.234V611.15H101.4Zm6.266,0H102.5V611.15h5.164Zm6.266,0h-5.164V611.15h5.164Zm6.266,0h-5.164V611.15H120.2Zm6.266,0H121.3V611.15h5.164Zm6.266,0h-5.164V611.15h5.164Zm6.6,0h-5.494V611.15h5.494Z" transform="translate(-66.053 -247.365)" fill="#fffbfb" opacity="0.1"/>
      <path id="Trazado_1247" data-name="Trazado 1247" d="M92.51,656.94c.158.218.317.442.481.659h3.423v4.426c.363.442.732.877,1.1,1.319v-5.738h5.164v9.234H100.59c.2.218.409.442.627.66h46.756V656.947Zm16.436,9.893h-5.164V657.6h5.164Zm6.266,0h-5.164V657.6h5.164Zm6.266,0h-5.164V657.6h5.164Zm6.266,0h-5.164V657.6h5.164Zm6.266,0h-5.164V657.6h5.164Zm6.266,0h-5.164V657.6h5.164Zm6.6,0h-5.494V657.6h5.494Z" transform="translate(-73.601 -263.179)" fill="#fffbfb" opacity="0.1"/>
      <path id="Trazado_1248" data-name="Trazado 1248" d="M144.87,703.39c.594.336,1.194.66,1.8.983v-.323h5.164v2.915l1.1.5V704.05H158.1v5.6l1.1.422V704.05H164.7v7.915l1.1.343V703.39Z" transform="translate(-91.426 -278.992)" fill="#fffbfb" opacity="0.1"/>
      <path id="Trazado_1249" data-name="Trazado 1249" d="M466.561,286.159s-15.724-.95-13.851,10.065a2.691,2.691,0,0,0,1.4,2.836s0-.818,1.609-.541a7.357,7.357,0,0,0,1.708.079,3.555,3.555,0,0,0,2.091-.857h0s4.419-1.827,6.14-9.049c0,0,1.266-1.576,1.22-1.979l-2.638,1.134a4.747,4.747,0,0,1,.2,3.5s-.086-3.43-.6-3.351c-.1,0-1.378.66-1.378.66s1.563,3.337.383,5.758c0,0,.449-4.1-.864-5.514l-1.913,1.1s1.827,3.443.587,6.253c0,0,.323-4.307-.976-5.982l-1.7,1.319s1.715,3.39.66,5.725c0,0-.138-5.019-1.035-5.4a10.172,10.172,0,0,0-1.708,1.847s1.174,2.46.448,3.759c0,0-.448-3.337-.818-3.357A11.114,11.114,0,0,0,453.9,297.9a8.034,8.034,0,0,1,1.266-3.957,4.433,4.433,0,0,0-2.256,1.167s.231-1.563,2.638-1.7a10.3,10.3,0,0,1,1.55-1.781,9.718,9.718,0,0,0-3.825.442s1.273-1.477,4.261-.8l1.669-1.365s-3.133-.429-4.459.046c0,0,1.524-1.319,4.907-.356l1.82-1.088a16.607,16.607,0,0,0-4.261-.369s1.675-.9,4.795.079l1.319-.587s-1.979-.383-2.526-.442-.607-.218-.607-.218a6.78,6.78,0,0,1,3.674.409A16.6,16.6,0,0,0,466.561,286.159Z" transform="translate(-198.861 -136.941)" fill="#fffbfb" opacity="0.1"/>
      <path id="Trazado_1250" data-name="Trazado 1250" d="M410.538,367.372s-5.375,14.8,5.718,16.152a2.684,2.684,0,0,0,3.107-.534s-.772-.257-.059-1.7a7.514,7.514,0,0,0,.567-1.609,3.568,3.568,0,0,0-.237-2.249h0s-.495-4.755-6.932-8.456c0,0-1.148-1.669-1.55-1.735l.33,2.869a4.754,4.754,0,0,1,3.416.8s-3.3-.89-3.384-.376c0,.1.244,1.51.244,1.51s3.641-.554,5.626,1.266c0,0-3.812-1.6-5.534-.732l.514,2.1s3.819-.765,6.16,1.214c0,0-4.036-1.524-6.015-.758l.785,1.979s3.74-.66,5.679.983c0,0-4.854-1.319-5.468-.541a10.381,10.381,0,0,0,1.28,2.157s2.7-.422,3.733.66c0,0-3.331-.521-3.449-.178a11.371,11.371,0,0,0,3.12,2.638,8.073,8.073,0,0,1-3.423-2.341,4.432,4.432,0,0,0,.481,2.5s-1.438-.66-.89-3a10.1,10.1,0,0,1-1.266-1.979,9.566,9.566,0,0,0-.66,3.792s-1.055-1.642.435-4.314l-.831-1.979s-1.319,2.882-1.227,4.294c0,0-.818-1.84,1.055-4.815l-.521-2.051a16.443,16.443,0,0,0-1.563,3.957s-.4-1.867,1.431-4.577l-.191-1.411s-.923,1.768-1.141,2.3-.383.514-.383.514a6.78,6.78,0,0,1,1.431-3.41A16.655,16.655,0,0,0,410.538,367.372Z" transform="translate(-183.802 -164.552)" fill="#fffbfb" opacity="0.1"/>
      <path id="Trazado_1251" data-name="Trazado 1251" d="M568.569,348.448s-5.369,14.827,5.718,16.146a2.691,2.691,0,0,0,3.113-.541s-.778-.257-.059-1.7a7.059,7.059,0,0,0,.56-1.616,3.569,3.569,0,0,0-.231-2.249h0s-.495-4.755-6.932-8.456c0,0-1.154-1.662-1.557-1.728l.336,2.862a4.773,4.773,0,0,1,3.417.811s-3.3-.89-3.39-.383c0,.106.244,1.51.244,1.51s3.641-.547,5.633,1.266c0,0-3.812-1.59-5.54-.732l.521,2.1s3.819-.772,6.16,1.214c0,0-4.043-1.53-6.022-.765l.785,1.979s3.74-.66,5.679.983c0,0-4.848-1.319-5.468-.534a10.181,10.181,0,0,0,1.319,2.157s2.691-.429,3.733.66c0,0-3.331-.521-3.449-.171a11.423,11.423,0,0,0,3.113,2.638,8,8,0,0,1-3.417-2.341,4.465,4.465,0,0,0,.475,2.5s-1.431-.66-.884-2.994a10.621,10.621,0,0,1-1.273-1.979,9.725,9.725,0,0,0-.66,3.792s-1.055-1.636.435-4.314l-.831-1.979s-1.319,2.882-1.227,4.287c0,0-.818-1.834,1.055-4.808l-.528-2.058a16.446,16.446,0,0,0-1.563,3.957s-.389-1.867,1.438-4.577l-.191-1.411s-.923,1.768-1.148,2.3-.383.514-.383.514a6.826,6.826,0,0,1,1.438-3.41A16.213,16.213,0,0,0,568.569,348.448Z" transform="translate(-238.689 -158.107)" fill="#fffbfb" opacity="0.1"/>
      <path id="Trazado_1252" data-name="Trazado 1252" d="M342.668,531.935s-5.375,14.807,5.718,16.159a2.678,2.678,0,0,0,3.107-.541s-.772-.257-.059-1.7a7.105,7.105,0,0,0,.567-1.616,3.522,3.522,0,0,0-.237-2.249h0s-.495-4.755-6.932-8.449c0,0-1.148-1.669-1.55-1.735l.33,2.862a4.769,4.769,0,0,1,3.416.811s-3.3-.89-3.384-.383c0,.105.244,1.51.244,1.51s3.641-.547,5.626,1.266c0,0-3.812-1.59-5.534-.732l.514,2.1s3.819-.772,6.16,1.214c0,0-4.036-1.53-6.015-.765l.785,1.979s3.74-.66,5.679.983c0,0-4.848-1.319-5.468-.534a10.384,10.384,0,0,0,1.28,2.157s2.7-.429,3.74.66c0,0-3.337-.521-3.456-.172a11.488,11.488,0,0,0,3.12,2.638,8.027,8.027,0,0,1-3.423-2.335,4.412,4.412,0,0,0,.481,2.493s-1.438-.659-.89-2.994a10.631,10.631,0,0,1-1.266-1.979,9.6,9.6,0,0,0-.66,3.792s-1.055-1.636.435-4.313l-.831-1.979s-1.319,2.882-1.22,4.287c0,0-.818-1.834,1.055-4.808l-.528-2.051a16.32,16.32,0,0,0-1.563,3.957s-.4-1.873,1.431-4.577l-.191-1.418s-.923,1.768-1.141,2.3-.383.515-.383.515a6.754,6.754,0,0,1,1.438-3.41A16.816,16.816,0,0,0,342.668,531.935Z" transform="translate(-160.229 -220.579)" fill="#fffbfb" opacity="0.1"/>
      <path id="Trazado_1253" data-name="Trazado 1253" d="M310.329,320.342s-5.369,14.8,5.718,16.152a2.7,2.7,0,0,0,3.113-.534s-.778-.257-.059-1.7a7.4,7.4,0,0,0,.561-1.616,3.548,3.548,0,0,0-.231-2.242h0s-.495-4.755-6.939-8.456c0,0-1.148-1.669-1.55-1.735l.336,2.869a4.735,4.735,0,0,1,3.41.8s-3.3-.89-3.384-.376c0,.1.244,1.51.244,1.51s3.641-.554,5.633,1.266c0,0-3.812-1.6-5.54-.732l.514,2.1s3.819-.772,6.167,1.214c0,0-4.043-1.53-6.022-.758l.785,1.979s3.74-.66,5.679.989c0,0-4.848-1.319-5.468-.541a10.384,10.384,0,0,0,1.28,2.157s2.7-.422,3.74.66c0,0-3.331-.521-3.449-.178a11.3,11.3,0,0,0,3.113,2.638,8.112,8.112,0,0,1-3.423-2.341,4.432,4.432,0,0,0,.481,2.5s-1.438-.66-.884-3a10.4,10.4,0,0,1-1.273-1.979,9.694,9.694,0,0,0-.66,3.792s-1.062-1.642.435-4.313l-.838-1.979s-1.319,2.882-1.22,4.294c0,0-.818-1.84,1.055-4.815l-.528-2.051a16.443,16.443,0,0,0-1.563,3.957s-.389-1.867,1.431-4.577l-.185-1.411s-.93,1.768-1.148,2.3-.383.521-.383.521a6.754,6.754,0,0,1,1.438-3.41A16.136,16.136,0,0,0,310.329,320.342Z" transform="translate(-148.998 -148.541)" fill="#fffbfb" opacity="0.1"/>
      <path id="Trazado_1254" data-name="Trazado 1254" d="M371.44,442.357s4.149,15.17,13.989,9.893a2.684,2.684,0,0,0,2.229-2.229s-.778.237-1.022-1.352a7.251,7.251,0,0,0-.475-1.642,3.489,3.489,0,0,0-1.484-1.7h0s-3.146-3.6-10.553-2.915c0,0-1.9-.693-2.269-.514l1.926,2.144a4.817,4.817,0,0,1,3.258-1.319s-3.225,1.187-2.988,1.642c.053.092,1.068,1.095,1.068,1.095s2.638-2.552,5.329-2.216c0,0-4.03.9-4.94,2.6l1.629,1.418s2.678-2.829,5.738-2.566c0,0-4.188,1.082-5.362,2.849l1.794,1.181s2.638-2.711,5.211-2.467c0,0-4.709,1.735-4.782,2.711a10.281,10.281,0,0,0,2.3,1.022s1.979-1.9,3.423-1.629c0,0-3.027,1.5-2.922,1.847a11.737,11.737,0,0,0,4.056.343,8.046,8.046,0,0,1-4.142.066,4.392,4.392,0,0,0,1.834,1.761s-1.557.284-2.454-1.939a10.454,10.454,0,0,1-2.19-.89,9.75,9.75,0,0,0,1.649,3.482s-1.807-.732-2.13-3.779l-1.827-1.141s.6,3.106,1.471,4.208c0,0-1.728-1.029-1.913-4.538l-1.609-1.372a16.49,16.49,0,0,0,1.016,4.155S374.9,449.242,374.83,446l-.97-1.049s.264,1.979.389,2.539,0,.66,0,.66a6.774,6.774,0,0,1-.791-3.614A16.483,16.483,0,0,0,371.44,442.357Z" transform="translate(-170.691 -189.958)" fill="#fffbfb" opacity="0.1"/>
      <path id="Trazado_1255" data-name="Trazado 1255" d="M542.08,462.914s4.149,15.17,13.983,9.893a2.678,2.678,0,0,0,2.236-2.229s-.785.237-1.029-1.319a6.929,6.929,0,0,0-.468-1.642,3.535,3.535,0,0,0-1.491-1.7h0s-3.146-3.6-10.553-2.909c0,0-1.9-.7-2.262-.521l1.919,2.144a4.817,4.817,0,0,1,3.258-1.319s-3.225,1.187-2.981,1.642c.046.092,1.068,1.095,1.068,1.095s2.638-2.552,5.329-2.216c0,0-4.036.9-4.947,2.6l1.636,1.418s2.638-2.829,5.732-2.566c0,0-4.182,1.082-5.356,2.849l1.794,1.181s2.638-2.711,5.2-2.467c0,0-4.709,1.735-4.775,2.711a10.2,10.2,0,0,0,2.289,1.022s1.979-1.9,3.423-1.629c0,0-3.021,1.5-2.922,1.847a11.761,11.761,0,0,0,4.063.343,8.081,8.081,0,0,1-4.149.066,4.439,4.439,0,0,0,1.834,1.761s-1.557.284-2.453-1.939a10.281,10.281,0,0,1-2.183-.89,9.689,9.689,0,0,0,1.642,3.482s-1.807-.732-2.13-3.779l-1.827-1.154s.6,3.107,1.477,4.208c0,0-1.728-1.029-1.913-4.538l-1.616-1.372a16.285,16.285,0,0,0,1.022,4.155s-1.4-1.319-1.471-4.564l-.97-1.049s.264,1.979.389,2.539,0,.66,0,.66a6.774,6.774,0,0,1-.792-3.614A16.586,16.586,0,0,0,542.08,462.914Z" transform="translate(-229.967 -196.968)" fill="#fffbfb" opacity="0.1"/>
      <path id="Trazado_1256" data-name="Trazado 1256" d="M464.422,661.284s34.218-11.522,27.134-52.349L448.091,597.65,438,631.149Z" transform="translate(-193.964 -242.994)" fill="#ced7e7"/>
      <path id="Trazado_1257" data-name="Trazado 1257" d="M438,636.974l26.415,30.135s34.218-11.522,27.134-52.349Z" transform="translate(-193.964 -248.819)" opacity="0.1"/>
      <path id="Trazado_1258" data-name="Trazado 1258" d="M219.975,185.752s4.617,7.512,10.929,3.759.257-14.121.257-14.121S219.072,173.735,219.975,185.752Z" transform="translate(-116.979 -99.211)" fill="#fed253"/>
      <path id="Trazado_1259" data-name="Trazado 1259" d="M230.9,189.513a6.51,6.51,0,0,1-5.085.857,10.251,10.251,0,0,1-5.052-3.535,11.006,11.006,0,0,1-.791-1.075c-.323-4.287,1.009-6.84,2.856-8.343h0c2.539-2.064,6.055-2.15,7.572-2.084a3.434,3.434,0,0,1,.739.066l.125.211c.178.336.567,1.082.983,2.078C233.661,180.952,235.343,186.868,230.9,189.513Z" transform="translate(-116.979 -99.213)" opacity="0.1"/>
      <path id="Trazado_1260" data-name="Trazado 1260" d="M473.049,611.85l23.744,1.919,44.19.363L506.165,657s-11.048.6-13.323,2.157-34.224.725-34.224.725l-5.158-21.976Z" transform="translate(-199.493 -247.828)" fill="#ffa2a2"/>
      <path id="Trazado_1261" data-name="Trazado 1261" d="M473.049,611.85l23.744,1.919,44.19.363L506.165,657s-11.048.6-13.323,2.157-34.224.725-34.224.725l-5.158-21.976Z" transform="translate(-199.493 -247.828)" opacity="0.05"/>
      <path id="Trazado_1262" data-name="Trazado 1262" d="M434.354,436.61l5.52,9.366,1.2,16.331s3.845,13.923,6.727,18.006,4.083,14.893,4.083,14.893,1.2,10.085,2.638,12.241,3.364,17.808,3.364,17.808,12.729,25.452,24.252,28.572c0,0-57.151,18.731-27.134,52.349,0,0-21.37,5.276-26.415-.719s-18.25-94.851-18.25-94.851l4.083-74.926Z" transform="translate(-184.414 -187.852)" fill="#ced7e7"/>
      <path id="Trazado_1263" data-name="Trazado 1263" d="M434.354,436.61l5.52,9.366,1.2,16.331s3.845,13.923,6.727,18.006,4.083,14.893,4.083,14.893,1.2,10.085,2.638,12.241,3.364,17.808,3.364,17.808,12.729,25.452,24.252,28.572c0,0-57.151,18.731-27.134,52.349,0,0-21.37,5.276-26.415-.719s-18.25-94.851-18.25-94.851l4.083-74.926Z" transform="translate(-184.414 -187.852)" opacity="0.05"/>
      <path id="Trazado_1264" data-name="Trazado 1264" d="M305.588,277.514a51.446,51.446,0,0,0,1.385,25l-8.891,25.452s-67.717-37.7-61.952-46.828c3.265-5.178,3.68-18.876,3.417-29.759-.191-8.271-.778-14.906-.778-14.906s83.1,8.172,72.043,27.141A44.778,44.778,0,0,0,305.588,277.514Z" transform="translate(-123.681 -120.032)" fill="#ffa2a2"/>
      <path id="Trazado_1265" data-name="Trazado 1265" d="M312.353,263.611a44.777,44.777,0,0,0-5.224,13.9,56.029,56.029,0,0,1-66.041-26.138c-.191-8.271-.778-14.906-.778-14.906S323.394,244.642,312.353,263.611Z" transform="translate(-125.25 -120.032)" opacity="0.1"/>
      <path id="Trazado_1266" data-name="Trazado 1266" d="M342.743,186.847a55.957,55.957,0,1,1-101.611-32.318q1.187-1.669,2.5-3.258a55.97,55.97,0,0,1,18.21-14.51h0a54.968,54.968,0,0,1,11.971-4.34,55.763,55.763,0,0,1,68.93,54.427Z" transform="translate(-122.033 -84.095)" fill="#ffa2a2"/>
      <path id="Trazado_1267" data-name="Trazado 1267" d="M310.647,467.21c-.838,4.472.211,12.644,1.8,20.961.066.363.138.725.211,1.088s.178.923.27,1.379c.732,3.575,1.53,7.117,2.308,10.335s1.477,5.976,2.071,8.244c.9,3.4,1.51,5.534,1.51,5.534s.079,2.1.185,5.435c.059,1.926.125,4.274.191,6.866,0,.752.046,1.517.066,2.308.033,1.379.066,2.81.1,4.274,0,.475,0,.95.033,1.431,0,1.576.059,3.186.086,4.788.033,2.2.059,4.406.073,6.543v8.218c-.073,5.112-.277,8.97-.712,10.085-.152.383-.29.8-.422,1.233a41.7,41.7,0,0,0-1.24,6.246l-1.121-.917c-2.144-1.768-4.267-3.575-6.424-5.329a93.4,93.4,0,0,0-11.384-8.165c-.27-.158-.541-.317-.818-.468-.739-.429-1.491-.831-2.256-1.214a51.679,51.679,0,0,0-4.841-2.137,63.409,63.409,0,0,0-24.047-3.779c-3.3,1.26-5.441,2.163-5.441,2.163l-4.195,1.266-.7.211c-4.544,1.385-10.935,3.351-13.237,4.168-3.72,1.319-36.018,8.04-36.018,8.04a53.654,53.654,0,0,1-9.01,1.649,127.207,127.207,0,0,1-16.891,3.535,94.118,94.118,0,0,1-38.657-3.113,6.32,6.32,0,0,1-1.121-.033,3.458,3.458,0,0,0,.66-.092l-.8-.237-1.1-.343q-2.77-.871-5.494-1.906l-1.1-.422q-2.638-1.016-5.164-2.183l-1.1-.5q-2.638-1.227-5.164-2.592c-.607-.317-1.207-.659-1.8-.983q-2.691-1.5-5.276-3.153c-.29-2.487-.442-4.149-.442-4.149l-2.572-12.809-.132-.66-1.847-9.234-.132-.659-4.017-20.09-.132-.66-1.847-9.234-.132-.66-4.069-20.077-.132-.66-1.847-9.234-.132-.66L93.2,446.744l-.132-.66-1.847-9.2-.132-.66-.732-3.628-1.1-5.494s-3.515-5.026-7.473-10.968l-.442-.66c-1.128-1.669-2.289-3.4-3.417-5.1-.376-.561-.739-1.115-1.1-1.662q-.824-1.247-1.6-2.434l-.356-.547-.073-.112c-5.685-8.8-1.88-12.624-1.88-12.624s2.388-3.232,5.468-7.506c.152-.218.31-.435.475-.66,1.319-1.847,2.77-3.865,4.195-5.883l1.1-1.57c.416-.587.824-1.174,1.22-1.754.158-.218.31-.442.455-.66,3.041-4.393,5.547-8.225,6.061-9.583.8-2.144,5.936-8.482,11.048-14.042,4.03-4.393,8.04-8.3,9.841-9.234,4.083-2.157,5.765-9.128,5.765-9.128s8.884-3.113,10.085-5.514,18.012-13.191,18.012-13.191,6.8-4.379,9.55-7.018a5.626,5.626,0,0,0,1.009-1.181c.956-1.715,7.2-3.126,9.742-3.634.66-.132,1.068-.2,1.068-.2a21.5,21.5,0,0,1,3.845-5.046c1.036-.917,2.328-4.076,3.416-7.136,1.181-3.337,2.1-6.549,2.1-6.549,1.926-6.483,5.765-4.564,5.765-4.564a13.19,13.19,0,0,0,.251,2.638h0c1.6,7.915,10.309,11.212,14.88,14.913,5.046,4.076,12.967,14.649,19.213,16.805,5.171,1.787,11.166,8.528,13.066,10.777l.145.172c.317.369.475.58.475.58s3.542-.185,5.7-.224h.785a2.3,2.3,0,0,0,1.2-.488c2.144-1.458,5.336-5.732,6.727-6.714,1.675-1.207,3.364-20.657,3.364-20.657l.086-.04c5.982-2.8,12.4,25.254,12.4,25.254s11.285,3.364,12.248,5.764a8.625,8.625,0,0,0,2.315,2.341,126.9,126.9,0,0,0,18.534,11.773c.145.073.284.145.429.2a4.388,4.388,0,0,0,.4.191c.244.119.481.224.706.323q.534.237.989.4l.4.139a9.536,9.536,0,0,1,2.638,1.365c.237.171.475.35.706.541a18.639,18.639,0,0,1,2.467,2.48c.112.132.218.27.323.4h0a22.2,22.2,0,0,1,1.319,1.82,26.98,26.98,0,0,1,1.655,2.757s9.841,16.812,12.967,18.725,5.046,21.376,5.046,21.376h0L314.01,431.666s-.495,9.893-1.418,19.985C312.078,457.31,311.425,463.068,310.647,467.21Z" transform="translate(-66.505 -134.398)" fill="#ced7e7"/>
      <path id="Trazado_1268" data-name="Trazado 1268" d="M298.493,343.992s-7.077,3.839-12.6,4.2a10.387,10.387,0,0,1-2.163-.125c-5.791-.877-14.286-5.639-14.286-5.639l9.966-10.929,12.123,6.009,4.459,4.149Z" transform="translate(-135.286 -152.384)" fill="#63667e"/>
      <path id="Trazado_1269" data-name="Trazado 1269" d="M342.034,177.89a6.635,6.635,0,0,1-.851.983c-3.469,3.3-9.629,1.932-14.358,1.167a52.288,52.288,0,0,1-11.958-3.456c-3.337-1.425-7.341-3.166-10.342-1.121-1.154.778-1.946,2.025-3.146,2.711a8.663,8.663,0,0,1-4.149.752c-4.617,0-9.234.053-13.739-.989-6.721-1.57-13.673-5.52-20.064-2.915-5,2.031-7.71,7.473-9.062,12.7-.66,2.566-1.148,5.276-2.638,7.453s-4.373,3.72-6.826,2.7c-3.621-1.51-4.155-7.657-8.521-7.967-4.795-.336-4.736,4.617-3.337,8.2,2.071,5.276,4.782,10.553,4.9,16.054a55.99,55.99,0,0,1,3.192-59.65,6.029,6.029,0,0,0,2.381-2.783,4.162,4.162,0,0,0,.119-.475c.363-1.84-.66-3.773-.719-5.7-.231-4.7,4.861-7.981,9.531-8.574,3.106-.4,6.286-.092,9.4-.191h0a21.266,21.266,0,0,0,4.65-.62,22.366,22.366,0,0,0,7.255-3.726A56.062,56.062,0,0,1,341.995,177.9Z" transform="translate(-122.035 -84.102)" opacity="0.1"/>
      <path id="Trazado_1270" data-name="Trazado 1270" d="M340.51,169.047a7.255,7.255,0,0,1-1.979,3.43c-3.469,3.3-9.629,1.926-14.358,1.161a51.636,51.636,0,0,1-11.958-3.43c-3.337-1.418-7.341-3.159-10.342-1.115-1.154.778-1.946,2.025-3.146,2.711a8.582,8.582,0,0,1-4.149.745c-4.617.033-9.234.059-13.739-.983-6.721-1.576-13.673-5.52-20.064-2.922-5,2.031-7.71,7.479-9.062,12.71-.66,2.566-1.148,5.276-2.638,7.446s-4.373,3.726-6.826,2.7c-3.621-1.51-4.155-7.657-8.521-7.967-4.795-.336-4.736,4.617-3.337,8.2,2.454,6.246,5.791,12.459,4.7,19.081-1.088,0-2.889-.04-3.957-.066.831-1.418-.752-3.107-2.328-3.588s-3.416-.475-4.617-1.623-1.207-2.922-1.082-4.511a31.045,31.045,0,0,1,2.46-9.854c.864-1.979,1.979-4.122,1.319-6.193a17.6,17.6,0,0,0-1.425-2.7c-1.372-2.638-1.049-5.936.125-8.66.5-1.161.864-2.256,1.28-3.3a14.669,14.669,0,0,1,2.249-4.109c1.51-1.88,2.988-4.709,1.319-6.457-.422-.442.422-.745.152-1.319a1.128,1.128,0,0,1-.1-.31,2.994,2.994,0,0,1,.475-1.979,4.841,4.841,0,0,1,.257-.442,3.753,3.753,0,0,1,.257-.435,20.967,20.967,0,0,1,5.705-6.22c1.431-1.036,3.107-2.031,3.674-3.707.66-1.979-.5-4.083-.6-6.173-.231-4.7,4.861-7.981,9.531-8.574s9.511.389,14.062-.818c6.457-1.7,10.995-7.4,16.858-10.6a23.869,23.869,0,0,1,20.974-.752c6.846,3.126,12.01,9.445,19.16,11.819,2.533.844,5.276,1.181,7.559,2.579,2.638,1.623,4.241,4.459,5.613,7.255,2.091,4.241,2.513,8.5,3.957,12.993,1.148,3.562,2.737,8.218,2.869,12.32a12.347,12.347,0,0,1-.323,3.647Z" transform="translate(-118.042 -79.143)" fill="#896363"/>
      <g id="Grupo_71" data-name="Grupo 71" transform="translate(105.203 58.839)" opacity="0.1">
        <path id="Trazado_1271" data-name="Trazado 1271" d="M235.135,182.437a2.935,2.935,0,0,0-.495-2.467c.171.514-.574.811-.165,1.24A2.638,2.638,0,0,1,235.135,182.437Z" transform="translate(-227.092 -159.636)"/>
        <path id="Trazado_1272" data-name="Trazado 1272" d="M234.689,177.68h0a2.723,2.723,0,0,0-.139.712C234.675,178.181,234.847,177.964,234.689,177.68Z" transform="translate(-227.16 -158.856)"/>
        <path id="Trazado_1273" data-name="Trazado 1273" d="M342.172,196c-3.476,3.3-9.629,1.932-14.372,1.161a51.287,51.287,0,0,1-11.945-3.449c-3.344-1.425-7.341-3.166-10.348-1.121-1.148.778-1.939,2.025-3.146,2.711a8.6,8.6,0,0,1-4.149.745c-4.617,0-9.234.059-13.745-.989-6.714-1.57-13.666-5.507-20.057-2.915-5,2.038-7.71,7.479-9.062,12.71-.66,2.566-1.141,5.276-2.638,7.453s-4.379,3.72-6.826,2.7c-3.621-1.517-4.155-7.657-8.521-7.967-3.41-.244-4.36,2.2-4.129,4.907.2-2.071,1.319-3.667,4.129-3.469,4.366.31,4.9,6.457,8.521,7.967,2.447,1.022,5.336-.514,6.826-2.7s1.979-4.887,2.638-7.446c1.352-5.23,4.063-10.678,9.062-12.71,6.391-2.6,13.343,1.319,20.057,2.915,4.485,1.049,9.141,1.016,13.745.983a8.347,8.347,0,0,0,4.149-.739c1.233-.7,1.979-1.932,3.146-2.717,3.008-2.038,7-.3,10.348,1.121A51.622,51.622,0,0,0,327.8,198.6c4.742.765,10.9,2.144,14.372-1.167,1.886-1.8,2.454-4.406,2.328-7.255A8.308,8.308,0,0,1,342.172,196Z" transform="translate(-226.7 -163.112)"/>
        <path id="Trazado_1274" data-name="Trazado 1274" d="M249.458,149.14a7.013,7.013,0,0,0-.04.989c.066,1.372.587,2.744.752,4.083C250.414,152.57,249.656,150.855,249.458,149.14Z" transform="translate(-232.221 -149.14)"/>
        <path id="Trazado_1275" data-name="Trazado 1275" d="M227.963,216.335a4.854,4.854,0,0,1,.125.6,4.735,4.735,0,0,0-.125-2.038,17.1,17.1,0,0,0-1.425-2.7,8.146,8.146,0,0,1-.864-3.133,8.686,8.686,0,0,0,.864,4.577A16.761,16.761,0,0,1,227.963,216.335Z" transform="translate(-224.127 -169.539)"/>
        <path id="Trazado_1276" data-name="Trazado 1276" d="M239.517,256.052l-3.858-.059a1.655,1.655,0,0,1-.119,1.438c1.088,0,2.9.04,3.957.066a16.158,16.158,0,0,0,.191-3.416A15.47,15.47,0,0,1,239.517,256.052Z" transform="translate(-227.497 -184.866)"/>
        <path id="Trazado_1277" data-name="Trazado 1277" d="M229.054,249.269c-1.576-.475-3.41-.481-4.584-1.636a4.181,4.181,0,0,1-1.095-2.764c-.1,1.517,0,3.153,1.095,4.208,1.174,1.154,3.008,1.161,4.584,1.636a3.918,3.918,0,0,1,2.394,1.979C232.114,251.327,230.584,249.724,229.054,249.269Z" transform="translate(-223.345 -181.731)"/>
      </g>
      <path id="Trazado_1278" data-name="Trazado 1278" d="M380.162,589.509c-.739-.429-1.491-.831-2.256-1.214a51.659,51.659,0,0,0-4.841-2.137,63.41,63.41,0,0,0-24.047-3.779c-3.3,1.26-5.441,2.163-5.441,2.163l-4.195,1.266-.7.211c-.046-.462-.1-.923-.145-1.392s-.1-.917-.152-1.379c-1.477-13.989-2.638-28.361-2.638-28.361V541.031l-.079-36.572-.66-12.057-.31-5.336-.059-1.016-.119-2.084-.066-1.24a11.149,11.149,0,0,1-.369-1.2h0c-.046-.165-.092-.35-.132-.541-.165-.66-.343-1.51-.528-2.434-1.207-6.068-2.717-16.3-2.81-18.375-.119-2.77-2.52-19.338-2.52-19.338-.244-9.122-7.915-26.3-9.847-29.535s-4.089-22.7-3.364-23.744c.376-.561.62-3.878.772-6.938,0-.35.033-.693.046-1.029.1-2.394.145-4.393.145-4.393l7.545-1.491,2.025-.4.158-.033.066.132c.218.4.9,1.688,1.7,3.377.092.178.178.369.27.561.04.092.086.185.132.277,1.477,3.232,3.186,7.486,3.113,9.933-.119,4.327,4.808,14.774,4.808,14.774.475,2.4,10.922,26.29,10.922,26.29s8.528,23.414,8.047,27.259,4.083,29.3,4.083,29.3l4.683,26.178c2.275,5.158,5.276,17.043,5.276,17.043l1.141,6.741.218,1.286,3.041,17.986,1.491,8.812s.627,4.683,1.576,9.893c.079.468.172.943.264,1.418a72.585,72.585,0,0,0,2.486,10.124,37.908,37.908,0,0,1,1.273,4.848Z" transform="translate(-151.129 -166.608)" opacity="0.1"/>
      <path id="Trazado_1279" data-name="Trazado 1279" d="M381.355,589.97c-.27-.158-.541-.317-.818-.468-.739-.429-1.491-.831-2.256-1.214a51.64,51.64,0,0,0-4.841-2.137,63.409,63.409,0,0,0-24.047-3.779c-3.3,1.26-5.441,2.163-5.441,2.163l-4.195,1.266c-.053-.462-.1-.923-.152-1.392s-.092-.844-.132-1.266c-1.477-13.956-2.638-28.262-2.638-28.262V540.906l-.079-36.48-.66-11.516-.132-2.388-.092-1.616-.119-2.137-.119-2.17-.086-1.563v-.343a.127.127,0,0,0-.046-.112c-.125-.356-.277-.9-.442-1.583l-.079-.33c-.033-.152-.073-.317-.106-.481-1.24-5.626-3.06-17.755-3.159-20.031-.119-2.77-2.52-19.338-2.52-19.338-.244-9.122-7.915-26.3-9.847-29.535s-4.083-22.7-3.364-23.744c.415-.66.66-4.663.818-7.967v-.765c.086-2.038.119-3.628.119-3.628l7.018-1.385,1.781-.35.277-.053.66-.132s.864,1.6,1.9,3.792l.132.277c1.51,3.258,3.3,7.69,3.245,10.21-.119,4.327,4.808,14.774,4.808,14.774.475,2.4,10.922,26.29,10.922,26.29s8.528,23.414,8.047,27.259,4.083,29.3,4.083,29.3l4.683,26.178c2.275,5.158,5.276,17.043,5.276,17.043l1.062,6.279.218,1.273,2.394,14.194,2.209,13.079s.66,4.663,1.57,9.893c.086.475.172.95.264,1.431a72.975,72.975,0,0,0,2.487,10.17,40.226,40.226,0,0,1,1.4,5.27Z" transform="translate(-151.513 -166.601)" fill="#63667e"/>
      <path id="Trazado_1280" data-name="Trazado 1280" d="M343.365,149.422s-2.52,3.245-4.795,3.245-11.133-.363-15.75-1.8-27.253-2.526-27.253-2.526-32.054.119-33.136-.963-19.932-6.846-21.851-6.483c-.4.079-1.385.251-2.7.468l-1.5.244c-2.275.363-5.118.785-7.717,1.095-3.212.376-6.035.567-6.932.237v-2.764s3.72-5.408,3.957-6.958,3.364-24.021,11.529-32.061A32.186,32.186,0,0,1,252.7,86.646c11.048-4.808,22.1-8.884,22.1-8.884l1.932-.277,6.233-.923a4.705,4.705,0,0,1,.613-.514c1.728-1.319,6.965-4.188,13.791,1.979l1.207,1.926s21.007,4.92,30.729,22.089,10.21,33.98,10.929,41.664c0,0-.481,2.163.482,3a13.461,13.461,0,0,1,1,.976c.086.086.172.171.251.264.277.277.534.567.745.8a.312.312,0,0,1,.066.066,2.111,2.111,0,0,0,.165.178Z" transform="translate(-117.593 -64.794)" fill="#fed253"/>
      <path id="Trazado_1281" data-name="Trazado 1281" d="M351.481,180.193s-2.52,3.245-4.795,3.245-11.133-.363-15.75-1.8-27.253-2.526-27.253-2.526-32.054.119-33.136-.963-19.932-6.846-21.851-6.483c-.4.079-1.385.251-2.7.468l-.343-2.111-.086-.521s36.381-7.8,60.633-3.713,42.146,8.64,42.146,8.64-.481,2.163.482,3a13.468,13.468,0,0,1,1,.976c.086.086.171.171.251.264.277.277.534.567.745.8a.311.311,0,0,1,.066.066,2.171,2.171,0,0,0,.165.178Z" transform="translate(-127.155 -95.565)" opacity="0.05"/>
      <path id="Trazado_1282" data-name="Trazado 1282" d="M339.461,189c-4.492.35-12.769-.745-16.39-1.28-1.029-.152-2.038-.336-3.054-.561-3.885-.844-15.829-3.212-23.084-2.117-8.766,1.319-33.5-1.082-33.5-1.082s-15.249-3.12-21.376-5.639c-2.249-.93-6.009-1.22-9.748-.758a27.135,27.135,0,0,0-2.836.508c-5.1,1.207-9.412,3.957-8.667,8.647a11.016,11.016,0,0,1-.791-1.075c-.323-4.287,1.009-6.84,2.856-8.343h0l.435-.178a53.26,53.26,0,0,1,6.873-1.471c.363-.059.739-.112,1.121-.158,6.563-.884,16.054-1.082,24.061,2.948,0,0,7.44,3.489,12.485,3.489s46.1.363,55.713,3.12a40.9,40.9,0,0,0,5.837,1.233,23.744,23.744,0,0,0,10.421-.983,12.346,12.346,0,0,1-.356,3.7Z" transform="translate(-116.992 -99.093)" opacity="0.1"/>
      <path id="Trazado_1283" data-name="Trazado 1283" d="M343.365,182.958s-2.52,3.245-4.795,3.245-11.133-.363-15.75-1.8-27.253-2.526-27.253-2.526-32.054.119-33.136-.963-19.932-6.846-21.851-6.483c-.4.079-1.385.251-2.7.468l-1.5.244a26.778,26.778,0,0,0-7.717,1.095c-3.212.376-6.035.567-6.932.237v-.547a15.83,15.83,0,0,1,2.157-1.042,58.331,58.331,0,0,1,13.653-2.124c5.758-.211,12.492.462,18.408,3.443,0,0,7.44,3.489,12.485,3.489s46.1.356,55.713,3.12a41.76,41.76,0,0,0,5.837,1.227,24.271,24.271,0,0,0,12.723-1.827.31.31,0,0,1,.066.066,2.2,2.2,0,0,0,.165.178Z" transform="translate(-117.593 -98.331)" opacity="0.1"/>
      <path id="Trazado_1284" data-name="Trazado 1284" d="M219.853,186.227s-8.047-6.127,2.4-10.21c0,0,18.25-5.639,32.061,1.319,0,0,7.44,3.476,12.485,3.476s46.1.363,55.713,3.126a41.552,41.552,0,0,0,5.837,1.227,24.845,24.845,0,0,0,14.82-2.816c.66-.363,1.253-.547,1.431-.336.6.726.125,4.927-5.158,5.765-4.122.66-13.488-.587-17.425-1.161-1.022-.152-2.038-.343-3.047-.561-3.885-.844-15.829-3.212-23.117-2.117-8.759,1.319-33.5-1.082-33.5-1.082s-15.242-3.12-21.37-5.646S217.571,176.861,219.853,186.227Z" transform="translate(-115.947 -98.717)" fill="#fed253"/>
      <path id="Trazado_1285" data-name="Trazado 1285" d="M317.731,88.848c-.66-.95-9.135-7.737-12.591-10.48l6.233-.923a4.7,4.7,0,0,1,.613-.514C316.517,81.685,317.731,88.848,317.731,88.848Z" transform="translate(-147.652 -65.717)" opacity="0.1"/>
      <path id="Trazado_1286" data-name="Trazado 1286" d="M217.294,89.828,214.53,93.91l10.566-.356.237-4.564Z" transform="translate(-74.516 -30.296)" opacity="0.1"/>
      <path id="Trazado_1287" data-name="Trazado 1287" d="M316.47,97.73l1.2,3.72,6.727,1.082-2.882-4.445Z" transform="translate(-109.913 -33.272)" opacity="0.1"/>
      <path id="Trazado_1288" data-name="Trazado 1288" d="M205.18,347c.719,1.2,24.371,32.318,30.617,31.454S205.18,347,205.18,347Z" transform="translate(-111.958 -157.661)" opacity="0.1"/>
      <path id="Trazado_1289" data-name="Trazado 1289" d="M325.33,390.12s5.765,5.527,4.92,7.684S325.33,390.12,325.33,390.12Z" transform="translate(-154.645 -172.341)" opacity="0.1"/>
      <path id="Trazado_1290" data-name="Trazado 1290" d="M228.3,447.65s-5.046,23.652-2.4,24.4S228.3,447.65,228.3,447.65Z" transform="translate(-118.753 -191.927)" opacity="0.1"/>
      <path id="Trazado_1291" data-name="Trazado 1291" d="M328.24,586.91c.838,2.4,7.8,18.013,9.366,18.85S328.24,586.91,328.24,586.91Z" transform="translate(-155.667 -239.337)" opacity="0.1"/>
      <path id="Trazado_1292" data-name="Trazado 1292" d="M448.3,489.7c-.244.838-6.246,5.765-4.927,7.565S448.3,489.7,448.3,489.7Z" transform="translate(-195.571 -206.243)" opacity="0.1"/>
      <path id="Trazado_1293" data-name="Trazado 1293" d="M380.083,556.14c-.119.607-1.319,13.191.963,15.612S380.083,556.14,380.083,556.14Z" transform="translate(-173.504 -228.862)" opacity="0.1"/>
      <path id="Trazado_1294" data-name="Trazado 1294" d="M373.343,635.678c-1.741.97-3.542,1.906-5.375,2.8-1.979.963-3.957,1.88-5.976,2.744-.8.35-1.609.693-2.407,1.022q-1.82.752-3.6,1.444c-3.608,1.411-7.084,2.638-10.177,3.674-1.2.4-2.348.772-3.416,1.115-5.382,1.708-8.957,2.638-8.957,2.638a9.7,9.7,0,0,0-2.487-.2h-.712a31.293,31.293,0,0,0-3.331.422c-7.367,1.319-17.775,5.019-24.047,7.44-3.3,1.26-5.441,2.163-5.441,2.163l-4.195,1.266-.7.211c-4.544,1.385-10.935,3.351-13.237,4.168-3.72,1.319-36.018,8.04-36.018,8.04a53.654,53.654,0,0,1-9.01,1.649,164.426,164.426,0,0,1-22.57.514c-7.559.488-19.787-1.174-26.9-2.3l-1.134-.178c-2.75-.448-4.5-.772-4.5-.772l.923-1.273,18.936-26.125.112-.158,17.643-24.331.66-.884,1.6-2.209s.963-1.319,4.67-1.4h1.431a38.657,38.657,0,0,1,9.148,1.867l.857.257c12.776,3.661,32.523,2.744,32.523,2.744s12.288-1.979,21.943-3.166l.719-.092a88.578,88.578,0,0,1,9.517-.824c5.883.119,18.613-3,18.613-3a12.4,12.4,0,0,0,5.435-2.183c.2-.145.422-.3.66-.475.66-.495,1.418-1.1,2.394-1.853,1.781-1.365,4.281-3.219,8.211-5.817.343-.224.706-.448,1.095-.66s.884-.495,1.359-.732a51.507,51.507,0,0,1,11.951-3.957,70.058,70.058,0,0,1,10.4-1.431h.521c9.893-.528,20,1.167,25.907,6.727a16.216,16.216,0,0,1,2.678,3.3,15.041,15.041,0,0,1,.963,1.794,16.827,16.827,0,0,1,1.194,3.693q.073.356.119.712v.211c0,.191.04.383.053.574C391.916,622.738,383.724,629.874,373.343,635.678Z" transform="translate(-103.097 -243.025)" opacity="0.1"/>
      <path id="Trazado_1295" data-name="Trazado 1295" d="M179.15,671.367s21.37,3.957,32.536,3.238c0,0,20.532,1.082,31.579-2.157,0,0,32.318-6.727,36.018-8.047s18.131-5.646,18.131-5.646,28.1-11.767,36.018-9.847c0,0,62.2-16.087,57.751-37.819s-43.7-16.805-56.062-8.647-10.553,9.009-16.687,10.329c0,0-12.729,3.12-18.613,3s-32.18,4.083-32.18,4.083-20.651.963-33.374-3-15.249-.481-15.249-.481Z" transform="translate(-103.097 -242.266)" fill="#ffa2a2"/>
      <path id="Trazado_1296" data-name="Trazado 1296" d="M195.566,548.822a.325.325,0,0,1,0,.079,4.452,4.452,0,0,1-.376,1.418c-2.533,6.213-16.911,22.972-16.911,22.972a45.9,45.9,0,0,1-2.368,5.817,89.2,89.2,0,0,1-6.826,11.575,156.735,156.735,0,0,1-12.419,15.744h-.033a18.86,18.86,0,0,1-1.774,1.167,14.681,14.681,0,0,1-6.074,2.2,6.32,6.32,0,0,1-1.121-.033,3.458,3.458,0,0,0,.66-.092l-.8-.237-1.1-.343q-2.77-.871-5.494-1.906l-1.1-.422q-2.638-1.016-5.164-2.183l-1.1-.5q-2.638-1.227-5.164-2.592c-.607-.317-1.207-.66-1.8-.983q-2.691-1.5-5.276-3.153-2.744-1.748-5.369-3.647c-1.319-2.447-2.407-4.617-3-5.784-1.082-2.17-1.174-5.276-1.042-7.526a3.584,3.584,0,0,1,.04-.66c.112-1.411.284-2.381.284-2.381a33.9,33.9,0,0,1-2.638-4.116,4.841,4.841,0,0,1-.739-2.368,2.81,2.81,0,0,0-.092-1c-.508-2.084-2.691-5.666-4.709-7.915-1.5-1.656-1.6-7.842-1.451-12.228.086-2.638.251-4.577.251-4.577a1.537,1.537,0,0,1-.627-.811,19.6,19.6,0,0,1-1.068-4.472,4.662,4.662,0,0,0-.092-.66c-.422-3.027-.613-6.068-.613-6.068-4.881-3.555-7.2-9.1-8.284-14.049l-.139-.66a41.553,41.553,0,0,1-.752-9.234v-.825s.646-14.292,2.454-19.872c.073-.237.152-.455.231-.66a4.94,4.94,0,0,1,.514-1,12.282,12.282,0,0,0,1.517-4.492c.27-1.359.495-2.869.66-4.373.152-1.253.27-2.5.363-3.654.257-3.087.336-5.494.336-5.494l-1.22-6.015c-.336-1.642-.594-3.3-.772-4.953a5.793,5.793,0,0,0-.079-.66,55.737,55.737,0,0,1-.165-9.2,3.656,3.656,0,0,1,.04-.66,55.765,55.765,0,0,1,5.382-20.116l.33-.66q.66-1.319,1.385-2.592c.35-.627.719-1.247,1.1-1.86a54.4,54.4,0,0,1,3.3-4.755c.171-.224.35-.442.528-.66A53.74,53.74,0,0,1,114,409.656c6.662-5.725,12.776-8.211,18.329-8.4,24.285-.857,37.9,42.093,40.108,49.618.211.726.317,1.121.317,1.121s9.841,9.847,6.958,14.167a7.433,7.433,0,0,0-1,3.113c-.791,5.811,1.477,15.381,1.477,15.381s.8,2.638,3.153,8.957l.693,1.847c1.471,3.957,1.814,10.6.97,16.548-.811,5.7-2.717,10.738-5.771,12.03-6.246,2.638-4.564,5.276-3.126,7.446a29.648,29.648,0,0,1,2.13,4.868c.9,2.434,1.741,4.993,2.058,5.989.092.277.138.429.138.429a13.033,13.033,0,0,1,2.711-.726c1.181-.165,2.348-.046,2.572.963.119.541.8,1.181,1.754,1.82A50.664,50.664,0,0,0,195.566,548.822Z" transform="translate(-73.172 -176.127)" opacity="0.1"/>
      <path id="Trazado_1297" data-name="Trazado 1297" d="M193.389,548.822h0a4.346,4.346,0,0,1-.376,1.451c-2.519,6.22-16.911,23.018-16.911,23.018a46.9,46.9,0,0,1-2.368,5.817,84.022,84.022,0,0,1-5.389,9.412,155.1,155.1,0,0,1-13.706,17.742l-.152.165s-.58.442-1.5,1.009a17.149,17.149,0,0,1-5.375,2.256l-.8-.237-1.1-.343q-2.77-.871-5.494-1.906l-1.1-.422q-2.638-1.016-5.164-2.183l-1.1-.5q-2.638-1.227-5.164-2.592c-.607-.317-1.207-.66-1.8-.983q-2.691-1.5-5.276-3.153-2.744-1.748-5.369-3.647-1.214-.871-2.4-1.787c-.89-1.688-1.6-3.113-2.045-4-1.082-2.17-1.174-5.276-1.042-7.526a3.582,3.582,0,0,1,.04-.66c.112-1.411.284-2.381.284-2.381s-.534-.719-1.181-1.7c-.363-.541-.752-1.167-1.1-1.787a6.12,6.12,0,0,1-1.075-3,1.47,1.47,0,0,0,0-.343,3.2,3.2,0,0,0-.1-.66c-.508-2.084-2.7-5.666-4.716-7.915-1.5-1.656-1.6-7.842-1.458-12.228v-.66c.092-2.275.231-3.918.231-3.918-.745-.323-1.319-2.717-1.688-5.276l-.1-.66c-.422-3.027-.613-6.068-.613-6.068-4.881-3.555-7.2-9.1-8.277-14.049a40.273,40.273,0,0,1-.857-10.553V508.4s.567-14.365,2.374-19.952c.073-.237.152-.455.231-.66a4.939,4.939,0,0,1,.587-.963c1-1.4,1.669-4.762,2.1-8.2l.079-.66c.547-4.617.7-9.148.7-9.148L93.981,462.8q-.5-2.473-.772-4.953c-.033-.218-.053-.442-.079-.66a55.755,55.755,0,0,1-.165-9.2,3.141,3.141,0,0,1,.046-.66,55.634,55.634,0,0,1,5.382-20.116c.106-.224.211-.442.33-.66a51.681,51.681,0,0,1,2.823-4.986c.356-.561.719-1.115,1.1-1.662.6-.871,1.227-1.728,1.88-2.559l.528-.66a53.81,53.81,0,0,1,6.774-7.024c7.255-6.22,13.851-8.62,19.787-8.4,23.381.838,36.506,42.245,38.663,49.618.211.726.317,1.121.317,1.121s9.847,9.847,6.965,14.167a7.433,7.433,0,0,0-1,3.113c-.8,5.811,1.477,15.381,1.477,15.381s.8,2.638,3.153,8.957c.211.587.442,1.2.66,1.847,1.471,3.957,1.814,10.6.97,16.548-.811,5.705-2.711,10.738-5.771,12.03-6.239,2.638-4.564,5.276-3.12,7.446a29.644,29.644,0,0,1,2.13,4.867c1.141,3.107,2.19,6.417,2.19,6.417a12.88,12.88,0,0,1,1.319-.429,6.746,6.746,0,0,1,2.849-.3,1.26,1.26,0,0,1,1.128.963c.178.791,1.543,1.774,3.2,2.7a61.094,61.094,0,0,0,6.642,3.113Z" transform="translate(-72.433 -176.127)" fill="#ced7e7"/>
      <path id="Trazado_1298" data-name="Trazado 1298" d="M115.61,521.188c2.282-.119,26.778-9.6,31.824-6.365s36.276,24.252,36.276,24.252S164.14,513.5,147.091,507.5,115.61,521.188,115.61,521.188Z" transform="translate(-81.465 -211.916)" opacity="0.1"/>
      <path id="Trazado_1299" data-name="Trazado 1299" d="M169,587.46s24.5,4.92,28.216,8.284Z" transform="translate(-99.641 -239.525)" opacity="0.1"/>
      <path id="Trazado_1300" data-name="Trazado 1300" d="M157.43,643c-.356.363-9.234,20.288-8.521,20.288s8.284-11.872,8.284-11.872Z" transform="translate(-92.787 -258.433)" opacity="0.1"/>
      <path id="Trazado_1301" data-name="Trazado 1301" d="M183.84,606.75s-7.2,2.526-6.365,2.764S183.6,607.832,183.84,606.75Z" transform="translate(-102.503 -246.092)" opacity="0.1"/>
      <path id="Trazado_1302" data-name="Trazado 1302" d="M176.24,652.45c1.2,2.52,5.039,10.085,5.883,8.884S176.24,652.45,176.24,652.45Z" transform="translate(-102.106 -261.65)" opacity="0.1"/>
      <path id="Trazado_1303" data-name="Trazado 1303" d="M279.739,326.25l-1.029,1.464s-8.172-5.758-11.529-8.64S255.9,329.4,249.65,333s-16.805,4.564-16.805,4.564-8.165-8.165-7.915-10.553-3.839-3.12-4.083-4.8-1.682-6.483-3.6-8.884c-1.016-1.266-1.161-5.23-1.068-8.68.66-.132,1.068-.2,1.068-.2a21.5,21.5,0,0,1,3.845-5.046c2.163-1.919,5.52-13.686,5.52-13.686,1.919-6.483,5.758-4.564,5.758-4.564,0,9.847,10.091,13.448,15.13,17.531s12.967,14.649,19.213,16.812C271.838,317.234,277.833,323.994,279.739,326.25Z" transform="translate(-115.695 -135.15)" opacity="0.1"/>
      <path id="Trazado_1304" data-name="Trazado 1304" d="M279.722,324.061l-1.029,1.471s-8.2-5.745-11.562-8.647-11.285,10.322-17.531,13.923-16.805,4.571-16.805,4.571-8.165-8.172-7.915-10.553-3.839-3.12-4.083-4.808-1.682-6.483-3.6-8.884c-1.016-1.266-1.161-5.23-1.068-8.68l1.068-.2a21.5,21.5,0,0,1,3.845-5.046c2.163-1.926,5.52-13.686,5.52-13.686,1.919-6.483,5.758-4.571,5.758-4.571,0,9.847,10.091,13.455,15.13,17.538s12.967,14.642,19.213,16.805C271.821,315.071,277.816,321.805,279.722,324.061Z" transform="translate(-115.678 -134.406)" fill="#ced7e7"/>
      <path id="Trazado_1305" data-name="Trazado 1305" d="M305.867,349.711s-7.077,3.839-12.6,4.2a10.389,10.389,0,0,1-2.163-.125h0s6.1-4.557,11.766-5.487Z" transform="translate(-142.78 -158.104)" opacity="0.1"/>
      <path id="Trazado_1306" data-name="Trazado 1306" d="M329.212,377.754s-8.924-3.476-11.872,1.754c.1-2.4.138-4.393.138-4.393l9.728-1.926s.937,1.735,2.031,4.069C329.212,377.569,329.212,377.754,329.212,377.754Z" transform="translate(-151.888 -166.578)" opacity="0.1"/>
      <path id="Trazado_1307" data-name="Trazado 1307" d="M291.1,353.57s10.691-6.417,15.829-5.877c5.389.561,15.829.956,15.829.956s-3.6,8.165-3.12,9.847.6,9.847.6,9.847-10.8-4.2-12.6,3.6c0,0-5.883-8.765-9.847-11.41A26.962,26.962,0,0,1,291.1,353.57Z" transform="translate(-142.819 -157.886)" fill="#63667e"/>
      <path id="Trazado_1308" data-name="Trazado 1308" d="M362.281,347.465c-3.12,0-14.167-6.972-16.568-11.529s-5.764.475-8.884,2.163c-1.979,1.082-9.821-1.181-14.049-2.823,2.144-1.458,6.892-5.56,8.284-6.543,1.675-1.207,3.364-20.657,3.364-20.657,6-3.12,12.485,25.215,12.485,25.215s11.292,3.364,12.248,5.764a8.625,8.625,0,0,0,2.315,2.341C362.8,344.721,363.521,347.465,362.281,347.465Z" transform="translate(-153.853 -144.328)" opacity="0.1"/>
      <path id="Trazado_1309" data-name="Trazado 1309" d="M363.084,345.285c-3.12,0-14.167-6.965-16.568-11.522s-5.765.475-8.884,2.157c-1.979,1.082-8.264-1.009-12.492-2.638,2.144-1.451,5.336-5.725,6.727-6.714,1.675-1.2,3.364-20.651,3.364-20.651,6-3.12,12.485,25.215,12.485,25.215s11.292,3.364,12.248,5.764a8.624,8.624,0,0,0,2.315,2.341C363.6,342.541,364.324,345.285,363.084,345.285Z" transform="translate(-154.669 -143.593)" fill="#ced7e7"/>
      <path id="Trazado_1310" data-name="Trazado 1310" d="M447.088,639.08,551.5,552.018a5.593,5.593,0,0,1,3.733-1.319l38.953,1.022s2.7,1.979-1.26,6.305l-98.5,80.828a6.266,6.266,0,0,1-3.759,1.411l-42.594,1.411a1.471,1.471,0,0,1-.989-2.6Z" transform="translate(-197.413 -227.009)" fill="#fffbfb"/>
      <path id="Trazado_1311" data-name="Trazado 1311" d="M523.94,645.274s22.807,32.661,48.148,2.282,18.012-46.34,10.329-47.185S531.5,632.789,523.94,645.274Z" transform="translate(-223.911 -243.915)" fill="#ffa2a2"/>
      <path id="Trazado_1312" data-name="Trazado 1312" d="M757.17,95.988s29.4-57.052,64.142-27.629c0,0,7.585,2.764,7.011,10.784,0,0-2.922-1.6-5.244,4.525a29.6,29.6,0,0,1-3.3,6.154,14.51,14.51,0,0,1-7.321,5.527h0s-15.592,11.681-44.474,2.671c0,0-8.165,1.174-9.484.158l9.491-6.939s4.821,7.156,11.872,7.974c0,0-11.872-7.453-10.513-9.069.277-.33,5.2-3.449,5.2-3.449s8.436,12.406,19.371,13.323c0,0-15.321-6.985-17.518-14.51l7.7-4.294s8.271,13.554,20.69,15.071c0,0-15.763-7.855-18.942-15.9l8.146-3.179s8.33,13.059,18.665,14.253c0,0-17.294-10.916-16.753-14.86,0,0,7.657-2.467,10.005-2.144,0,0,6.193,9.234,12.261,9.4,0,0-10.784-8.521-10.071-9.834,0,0,10.83-.561,16.489,2.058,0,0-8.047-4.478-16.489-3.753,0,0,3.819-4.492,8.8-5.481,0,0-5.969-2.454-11.424,5.646,0,0-8.422.772-9.465,1.708,0,0,4.261-8.759,9.5-12.485,0,0-7.816,1.378-11.687,13.25l-8.258,3.014s5.019-11.872,9.445-15.539c0,0-7.756,2.638-11.463,16.489l-7.6,4.129s3.542-10.553,7.585-15.7c0,0-6.668,4-9.722,16.964l-4.749,3.344s2.724-7.664,3.707-9.794.488-2.572.488-2.572a27.616,27.616,0,0,0-6.22,13.7S757.717,96.515,757.17,95.988Z" transform="translate(-305.097 -59.93)" fill="#fffbfb" opacity="0.1"/>
      <path id="Trazado_1313" data-name="Trazado 1313" d="M941.5,152.449s13.284-25.782,28.981-12.485a4.937,4.937,0,0,1,3.166,4.868s-1.319-.719-2.368,2.051a13.188,13.188,0,0,1-1.477,2.777,6.6,6.6,0,0,1-3.3,2.5h0s-7.051,5.276-20.1,1.207c0,0-3.687.528-4.281.073l4.287-3.139s2.177,3.238,5.369,3.6c0,0-5.356-3.364-4.749-4.1.119-.145,2.341-1.557,2.341-1.557s3.812,5.606,8.759,6.022c0,0-6.925-3.159-7.915-6.6l3.482-1.932s3.733,6.127,9.346,6.813c0,0-7.123-3.548-8.574-7.183l3.68-1.438s3.759,5.9,8.429,6.444c0,0-7.816-4.933-7.565-6.714,0,0,3.456-1.115,4.518-.97,0,0,2.8,4.175,5.54,4.241,0,0-4.874-3.845-4.551-4.439,0,0,4.894-.251,7.44.93a14.788,14.788,0,0,0-7.44-1.7,8.171,8.171,0,0,1,3.957-2.48s-2.7-1.108-5.164,2.553c0,0-3.806.35-4.274.772,0,0,1.926-3.957,4.294-5.639,0,0-3.535.62-5.276,5.989l-3.694,1.385s2.262-5.362,4.267-7.024c0,0-3.509,1.194-5.184,7.446l-3.43,1.86s1.6-4.775,3.423-7.1c0,0-3.014,1.807-4.386,7.664l-2.15,1.51s1.233-3.463,1.675-4.426.218-1.161.218-1.161a12.531,12.531,0,0,0-2.81,6.206S941.731,152.687,941.5,152.449Z" transform="translate(-369.891 -85.88)" fill="#fffbfb" opacity="0.1"/>
      <path id="Trazado_1314" data-name="Trazado 1314" d="M723.27,197.929s13.283-25.782,29.02-12.485a4.949,4.949,0,0,1,3.166,4.874s-1.319-.726-2.368,2.045a13.468,13.468,0,0,1-1.477,2.777,6.6,6.6,0,0,1-3.331,2.5h0s-7.044,5.276-20.1,1.207c0,0-3.687.534-4.28.073l4.287-3.139s2.177,3.238,5.362,3.608c0,0-5.356-3.37-4.749-4.1.125-.145,2.348-1.557,2.348-1.557s3.812,5.606,8.752,6.022c0,0-6.919-3.159-7.915-6.6l3.482-1.926s3.74,6.121,9.352,6.807c0,0-7.123-3.548-8.574-7.183l3.68-1.438s3.766,5.9,8.436,6.444c0,0-7.816-4.933-7.572-6.714,0,0,3.463-1.115,4.525-.97,0,0,2.8,4.175,5.54,4.248,0,0-4.874-3.852-4.551-4.445,0,0,4.887-.251,7.44.93a14.824,14.824,0,0,0-7.446-1.7,8.172,8.172,0,0,1,3.957-2.48s-2.691-1.108-5.158,2.552c0,0-3.806.35-4.274.772,0,0,1.919-3.957,4.294-5.639,0,0-3.535.62-5.276,5.989l-3.74,1.385s2.269-5.362,4.267-7.018c0,0-3.5,1.187-5.177,7.44l-3.436,1.86s1.6-4.775,3.43-7.1c0,0-3.014,1.807-4.393,7.664l-2.15,1.51s1.233-3.463,1.675-4.426.224-1.161.224-1.161a12.465,12.465,0,0,0-2.81,6.206S723.5,198.167,723.27,197.929Z" transform="translate(-293.015 -101.363)" fill="#fffbfb" opacity="0.1"/>
    </g>
  </g>
</svg>
